<svg xmlns="http://www.w3.org/2000/svg" viewBox="0 0 649 204">
  <path d="M380.5 14.7c-7.8 2.8-14 6.9-18.1 11.9l-3.8 4.6-11-.7c-12.4-.7-22.7.8-31.5 4.6-5.6 2.4-11.1 7.8-11.1 11s1.9 5.9 4 5.9c1.6 0 2-.7 2-3 0-3.7 2.7-6.5 8.7-9.2 8.2-3.6 25.2-5.8 33-4.2l3 .6-3.5 8c-1.9 4.4-4.6 12.8-6.1 18.8l-2.7 10.9-6.2 4.1c-23 14.8-38.1 43.6-29.7 56.4 1.9 2.9 5.6 4.6 10.1 4.6 12.6 0 24.6-19.6 31.8-52l2.3-10.5 5-1.1c5.7-1.3 7.3-2.1 7.3-3.6 0-.7-1.9-.9-5.5-.5-4.8.5-5.5.3-5.5-1.2 0-2.8 5.4-20.9 8.3-27.6l2.5-5.9 10.8-2.2c16.1-3.1 26.4-9 26.4-14.8s-10.7-8.4-20.5-4.9m13.9 2.3c7.7 2.9-4.1 11.1-20.3 14-3.5.6-6.5.9-6.8.6-1-1 3.9-6.6 8.4-9.7 4.4-3.1 11-5.7 14.5-5.8.9-.1 2.8.3 4.2.9M342 80.7c0 2.5-6.5 26.3-9 32.6-4.2 10.8-5.7 13.7-9.8 17.9-7.4 7.8-13.1 3.1-11.8-9.7 1.2-12.1 12.1-28.9 24.6-38.1 4.5-3.3 6-4 6-2.7M56.1 24.1c-7.6 2.2-16.6 10.4-20.2 18.3-2.8 6.1-2.5 13.7.6 17.4 1.3 1.6 3.8 3.5 5.5 4.2 3.7 1.5 3.7 2.1.2 4.2-1.6 1-6 5.1-9.9 9.2-21.9 23-21.6 51.7.5 52 4.4.1 7.1-.6 11.6-2.8 6.8-3.3 19.2-14.7 25.1-23 4.3-5.9 5.5-6.7 5.5-3.6 0 1 .9 2.4 2.1 3 3.3 1.8 6.3-1.1 11.6-11.2l4.8-9.3.3 7.5c.3 8.3 1.2 10 5.3 10 3.2 0 4.2-1.2 11.8-15.2 5.5-9.9 10.1-15.7 10.1-12.5 0 .8-2.1 8-4.6 15.9-5.4 16.7-6.8 28.2-3.9 31.1 4.5 4.6 11.1.5 19.6-12.1 6.3-9.4 6.1-9.2 5.3-5.4-1.2 6.1 1.6 11.2 6.2 11.2 3.1 0 9.3-5.7 15.1-13.7 2.5-3.5 4.6-6.3 4.6-6.3.1 0 .2 5.8.2 12.9 0 11.6.2 13.2 2.1 15.8 1.5 2 3.1 2.9 5.6 3.1 5.2.4 8.8-3.2 14.8-14.8 2.8-5.5 5.2-10 5.3-10 .2 0 0 2.9-.4 6.5-1.3 12.7 1.4 18.5 8.4 18.5 3.6 0 4.7-.6 9.2-5.3 3.4-3.4 7-9 10.6-15.9l5.4-10.7 2.1 1.9c3.4 3.3 7.1 2.5 11.8-2.3 2.3-2.3 4.9-5.3 5.8-6.7l1.7-2.5V87c.1 1.9-.4 6.4-.9 10-1 6.2-1.3 6.8-7.3 12.5-14.1 13.5-20 22.5-20.1 30.8 0 6.8 2.7 9.2 10.1 8.8 7.2-.3 17.3-17.2 21.8-36.3l2.7-11.3 5.1-4c10.5-8.4 21.3-20.5 18.1-20.5-.3 0-4.5 3.4-9.3 7.5-4.7 4.1-9.7 8.2-11 9.1l-2.4 1.7.7-7.9c.4-4.3.9-9.7 1.2-11.9.6-4.8-1.3-8.1-4.2-7.1-1 .3-3.9 4.3-6.4 8.7-2.4 4.4-5.9 9.7-7.6 11.7-4.5 5.2-5.6 3.7-4.2-5.6 1.1-7.5.3-10.2-2.8-10.2-2.1 0-5.1 5.6-5.9 10.8-1.3 8.5-14.6 32.2-20.1 35.9-3.6 2.3-4.4.7-4.4-8.8 0-7.8.9-14.5 3.7-26.4 1.4-6.3 2.2-7.6 7.8-13.5 11.2-11.7 21.4-30 21.5-38.5 0-5.7-2.2-8.5-6.7-8.5-3.1 0-4.4.8-7.9 4.6-7.5 8-18.2 32.1-21.5 48.8-1.3 6.2-15.8 36-19.5 39.9-1.9 2.1-2.9 2.6-3.7 1.8-2.2-2.2-2-15.6.4-29.3l2.3-13.3 6.6-7c3.6-3.8 7.7-8.6 9.2-10.5 4.2-5.6 9.8-17.5 10.4-22.2.8-5.9-1.5-11.5-5.2-12.4-10.5-2.7-22.2 18.4-29.3 52.8-.9 4.3-2.7 7.8-7.6 14.6-6.6 9.2-11.9 15.2-13.6 15.2-1.5 0-1-5.9 1.1-14.8 2.3-9.6 2.5-13.8.8-14.4-2.6-1-3.8.5-8.8 10.5-5.5 11.2-14.9 25-18 26.7-1.8 1-2 .8-2-2.1 0-3.6 1.9-11.5 6.1-24.8 5.2-17 4.9-23.1-1.2-23.1-4.2 0-10.1 6.4-16.8 18.3-3 5.3-5.8 9.4-6.2 9.1-.5-.3-.6-3.2-.2-6.4.7-6.7-.4-9-4.2-9-2.7 0-6.4 4-10.7 11.7-2.9 5.1-4.7 7.1-3.4 3.7 1.3-3.3 3.5-18.4 3-19.9-.9-2.3-4.3-1.8-5.4.7-.5 1.3-1.8 5.5-3 9.5-2.6 9-8.2 17.5-18.5 27.9-10.1 10.3-17 14.4-24.2 14.4-4.4 0-5.5-.4-6.7-2.3-5.8-9.3.6-30.2 13.8-44.4C45 74.4 50.3 69.8 53 68c6.9-4.4 6.5-6.5-1.3-6.5-6.9 0-8.7-1.6-8.7-8C43 40.5 55.1 27 66.8 27c4.8 0 8.4 3.9 8 8.7-.2 2.4.2 3.8 1.1 4.1 3.2 1.1 4.1-5.9 1.5-10.9-2.7-5.3-12.2-7.4-21.3-4.8m140.5 7.4c1.5 6-5.4 21.7-13.4 30.6-2.4 2.7-4.6 4.8-4.8 4.7-.6-.7 5.8-21.4 8.3-26.6 2.6-5.5 6.8-11.2 8.4-11.2.5 0 1.1 1.1 1.5 2.5m29.1 3.1c-.7 6.7-6.8 19.5-13.4 27.9-2.4 3.1-4.6 5.5-4.9 5.3-.7-.7 4.7-16.8 8.2-24.5 4.6-10.2 7.2-14.3 9.1-14.3 1.3 0 1.5.9 1 5.6m14.8 84.2c-2.1 8.9-9.2 23.1-12.7 25.6-6 4.3-7.7-3.8-2.8-13.8 2.1-4.5 15.8-20.1 16.8-19.2.2.3-.3 3.6-1.3 7.4m312-63.2c-1 1-1.5 2.9-1.3 4.8.2 2.5.8 3.2 3 3.4 2.3.3 3-.2 3.9-2.5.7-1.9.7-3.4 0-5-1.2-2.7-3.3-2.9-5.6-.7M621 57c-2.9 2.9-2.4 7.4.8 7.8 3.1.5 5.2-1.5 5.2-4.9 0-4.1-3.3-5.6-6-2.9"/>
  <path d="M147.6 62.5c-2.1 5.5.4 9.6 4.5 7.4 1.6-.8 1.9-1.9 1.7-4.7-.3-3.2-.7-3.7-2.9-4-1.7-.2-2.9.3-3.3 1.3m257.7 1.7c-.6.7-2.2 5.2-3.6 10-2.7 9.8-6.6 16.9-14.4 26.2-5.6 6.8-10.9 10.2-13 8.4-1.5-1.2-1.8-11.5-.4-15 .6-1.7 2.3-2.8 5.3-3.7 5.9-1.8 9.5-4.6 11.8-9.1 3.9-7.6 1.7-13-5.2-13-9.1 0-16.8 9.3-20.4 24.6-2.6 11.4.1 19.7 6.9 20.9 6.3 1.2 12.7-3.4 20.9-14.9l4.9-7-.7 5.6c-.6 4.8-.4 5.8 1.5 7.7 1.1 1.1 2.5 2.1 3.1 2.1 1.9 0 5-4.5 10.5-15 6.4-12.3 11.4-18.6 16.2-20.6 4.1-1.8 4.3-3.4.4-3.4-4.9 0-10.8 5.5-16.7 15.5-7.4 12.5-7.3 12.4-6.9 10 .2-1.1 1.4-7.5 2.7-14.3 1.6-8.8 1.9-12.8 1.2-13.9-1.4-2.3-2.9-2.6-4.1-1.1M388 74.8c0 3.7-4.2 9.6-8 11.2-1.7.7-3.3 1-3.6.7-.9-.8 4.4-11 6.8-13 3-2.5 4.8-2.2 4.8 1.1m48.7-8.6c-2.1 4.4-6.7 27.1-6.7 32.9 0 3.2.6 5.1 1.8 6.2 4.3 3.9 6.7 1.6 14.6-14.5 5.9-12.1 12-19.8 15.6-19.8 1.1 0 2-.7 2-1.5 0-1.9-3.3-1.9-6.9-.1-4.5 2.4-8.9 8.1-13.9 18.2-2.5 5.2-4.9 9.4-5.3 9.4-.3 0 .7-6.4 2.3-14.3 3.2-16.1 3.3-19.1.2-19.5-1.6-.2-2.5.6-3.7 3m59 1c-1.3 1.8-3.4 5-4.7 7-2.8 4.2-3.2 4.1-3.5-.4-.3-3.6-3.5-6.8-6.9-6.8-3.8.1-10.3 3.7-13 7.3-3.9 5.1-6.6 12.9-6.6 19 0 7.2 1.9 9.7 7.2 9.7 3.7 0 4.7-.6 10.4-6.3l6.3-6.3-.6 9.2c-.6 8.9-.5 9.3 2 11.8 1.4 1.4 3.5 2.6 4.7 2.6 2.9 0 10.4-7.3 14.8-14.4l3.7-6 .5 5.1c.6 5.8 2.3 8.3 5.6 8.3 2.8 0 4.5-2.4 11.9-16.8 5.4-10.7 9.6-16.4 13.9-18.8 3-1.6 1.1-3.5-2.3-2.3-4.9 1.7-9.5 7.4-15.1 18.6-6.3 12.6-7.2 11.8-4.4-4.1 1-5.5 1.8-12.1 1.9-14.6 0-4.1-.2-4.5-2.5-4.5s-2.7.7-4.7 8.8c-1.7 6.6-3.7 11.2-7.9 18.2-5.8 9.5-11.5 16.5-13.3 16.5-1.6 0-1.3-8.3.4-15.1.8-3.2 3.1-9.9 5-14.9 1.9-5.1 3.5-10.3 3.5-11.6 0-3.5-3.4-3.1-6.3.8m-10.3 8.1c1.6 3.4 1.7 4.2.5 6.5-2 3.7-14.1 16.2-15.8 16.2-4 0 2.5-21 7.7-25.1 3.5-2.7 5.4-2.1 7.6 2.4m108.9-9.8c-2.6 1.8-10.4 12.4-16.8 22.9-2.7 4.3-5.1 7.4-5.3 6.7s.3-5.4 1.3-10.6c2-11.5 1.8-14.9-1.2-15.3-2.5-.4-3.8 1.6-4.8 7.4-1.1 6.8-14.8 28.4-18 28.4-2.2 0-1.9-6.7.9-18.9 1.4-5.6 2.2-10.9 1.9-11.7-.7-1.9-3.7-1.8-5.5.3-2.4 2.7-5.9 15-6.5 23-.7 9.1.9 12.3 6.1 12.3 4.3 0 8.4-3.3 13.7-11.1 2.2-3.3 4.1-5.9 4.3-5.9s.1 2-.1 4.4c-.6 5.4.9 8.6 4.2 8.6 3.4 0 5.3-2.1 11.5-13.1 6.1-10.7 12.5-20.5 14-21.4 1.3-.8.8 1.4-3.7 17-5.1 17.2-5.6 26.1-1.7 29.9 3.8 3.9 9.6-.2 17.1-12.1l4.8-7.5.7 4.3c1.7 10.1 9.4 9.1 17.9-2.2 5-6.8 13.2-20.9 12.5-21.6-1.3-1.3-3.6 1-7.2 6.9-5.2 8.7-13.4 19-14.8 18.5-1.6-.6-.9-10.6 1.3-20.2 2-8.2 1.6-11.5-1.5-11.5-1.5 0-3.3 3.5-6.8 13.2-3.3 9-15.1 26.8-17.8 26.8-1.9 0-.5-9.4 3.2-22.4 5.3-18.3 5.3-26.6 0-26.6-.8 0-2.5.7-3.7 1.5"/>
</svg>
