<svg xmlns="http://www.w3.org/2000/svg" xml:space="preserve" viewBox="0 0 292 214">
  <path fill="#fefefd" d="M1.000001 158C1 105.689537 1 53.37907 1 1.034302h291.901917v213.820846H1c0-15.264373 0-30.591095.376215-46.391739 2.799892-1.554367 5.223569-2.634857 7.647246-3.715347.101156-.579056.202311-1.158111.303466-1.737167C6.551286 161.340591 3.775644 159.670303 1.000001 158m237.518157-3.181992c.491013-.608963.982025-1.217926 2.143433-1.958252 1.445785-.617584 2.891571-1.235168 4.780746-1.348205 7.815079-1.446655 7.690872-1.462463 8.647385-8.978882.197403-1.551224 1.401886-3.29953 2.65686-4.330566 3.93869-3.236008 8.122925-6.173172 12.968231-9.222229 5.656769-1.57734 15.047272-12.348214 15.878083-18.268143.028717-.204643-.400239-.473518-.694642-1.447922-1.955413-4.649177-5.258758-.665054-8.675201-1.251449-5.026978.929878-1.702148-5.107521-5.072357-5.93747-.885376 1.230515-1.783264 2.478401-2.681153 3.726296-.503326.04972-1.006652.099449-1.510009.149177-.31543-1.656799-1.039856-3.362694-.848236-4.958633.27124-2.259133 1.7164-4.421578 1.78601-6.652626.238617-7.644524.177369-15.302712.010865-22.950913-.024964-1.145828-1.224213-2.26609-1.900544-4.211006-.346069-2.065826-.692108-4.131645-1.023803-7.028027.00711-1.386447.014221-2.772899.040313-4.886882 1.723236-8.616112.039307-13.145249-6.683685-16.266148-.428406-.009178-.856842-.01836-1.59613-.561664-.909714-.821213-1.819428-1.642426-2.852829-3.154755-2.19928-.404541-4.531006-1.487496-6.573456-1.088741-6.60881 1.290268-11.366669 5.559593-16.073654 10.824955-4.366196 2.27819-8.732392 4.556385-13.382813 6.982879 1.998413 3.520653.848389 5.775429-2.645233 6.731262 1.009338 5.537125-.637649 9.341706-3.990478 9.061638-3.751252-.313354-7.456345-1.178993-11.267456-2.492294-.320816-1.099464-.641633-2.198925-.505204-3.638878-.47969-.555271-.959381-1.110542-1.446899-2.329887.000778-.442742.001572-.885479.791855-1.51352.546859-5.073322 1.093719-10.146644 1.655899-15.362003-7.852829.445763-10.351288-1.427952-8.026459-5.609657 2.838471-5.105597.613358-6.274084-3.571411-8.277817-3.042481-1.456785-5.368622-4.721611-7.439026-7.594761-.352051-.488575 2.575485-2.918674 3.298523-4.727369.66658-1.667488.822693-3.814507.373108-5.533038-.215149-.82245-2.628296-1.870928-3.553879-1.519838-1.408478.534248-2.762115 2.014118-3.451935 3.427697-.764236 1.566085-.42041 3.666921-1.164734 5.250171-1.032714 2.196762-2.629806 4.128208-4.453033 6.163372 0 0-.466843-.030763-.547546-.674301-.642487-.450922-1.284958-.901846-1.917664-1.359732 0 0-.007004.008234-.000488-.857032-.147919-8.149806-.201981-8.19277-7.832413-10.623886-.927307-.29545-1.690186-1.080437-2.607224-1.439391-3.2229-1.261522-6.432678-2.614563-9.763229-3.494588-.674209-.178144-1.853729 1.556053-2.814499 3.036422-.017349.416478-.034714.832957-.666961 1.378386-.477723.611389-.95546 1.222778-2.049027 1.903723-.410995.041502-.821991.083005-1.956802.231038-.441483 1.288421-.882965 2.576843-2.153427 3.884038-2.439713.328861-4.871079.83341-7.320893.950096-5.135422.2446-8.771156 2.891615-9.597938 7.685409-.717346 4.159334-2.864884 5.329922-6.322411 5.301522-4.31485-.035445-6.662514 2.215929-8.501755 6.105161-.138404.646511-.276809 1.293019-.414817 2.688973-.000084.749439-.000168 1.498878-.690621 2.359596-1.84333 1.92699-3.962456 3.662666-5.463791 5.826897-2.12355 3.061164-5.998916 5.395275-5.061508 10.500949-.199654.272698-.460594.460068-1.50592.64663-1.017746 1.200321-1.984261 2.449646-3.070084 3.584839-.810364.847198-1.654854 1.881088-2.691849 2.253578-4.127235 1.482517-8.335907 2.738331-13.343406 4.077595-.33236-.000016-.718026-.111298-.98832.018219-1.610954.771911-3.195259 1.599441-4.788513 2.408294 1.279739.868492 2.580002 1.708504 3.834198 2.612442 1.711357 1.233422 3.711121 2.260254 4.973518 3.85997.958474 1.214585 1.562477 3.344986 1.185242 4.765404-.274971 1.035362-2.412025 1.567436-3.707642 2.342796-1.470047.879761-3.13224 1.566193-4.342811 2.722146-1.853554 1.76992-3.392067 3.869781-5.768486 6.654892 1.847351 2.850799-.78141 5.4822-3.50214 8.409172-.657688.70755.018795 3.700676 1.021648 4.690773 2.151077 2.12368 2.397988 4.33184.452439 6.030059-2.914433 2.543908-6.160408 4.923615-9.650528 6.543152-5.604378 2.600624-6.844696 5.28917-4.509621 11.169991.398315 1.003158-.482719 2.631637-1.016327 3.865906-1.727318 3.995391-3.568066 7.941742-5.993393 12.220626-1.479496 1.104309-2.958988 2.208603-5.319691 3.970642 3.071125 0 5.440659-.672225 6.120171.114762 3.174709 3.676834 7.124962 7.381943 8.451786 11.784103 1.756012 5.826096-5.172115 10.603501-11.089737 8.459061-5.037277-1.825455-10.417158.376755-13.014761 5.327438-2.315464 4.412964-1.321064 6.246109 3.668783 7.034989 1.91697.303039 3.789025.890182 6.718903 1.598739-2.606022 2.441071-4.09856 3.98671-5.743343 5.34845-3.20998 2.657623-2.314034 5.680023-.560353 8.459137 1.39542 2.21138 10.310955 2.935028 12.613976 1.350891 5.068863-3.486618 5.084316-10.741943.172779-14.934677-.954579-.814926-2.191925-2.802734-1.859234-3.315537.74493-1.148178 2.323906-1.879653 3.698826-2.459045 1.324711-.558197 2.807094-.789535 4.243011-1.025955 2.452217-.403717 4.924034-.997437 7.384484-.982819 6.790622.040299 12.413692 7.485749 20.027904 3.230957.44471-.248504 1.773865 1.270264 2.778275 1.802796 2.558853 1.356689 5.116653 3.555587 7.767364 3.698196 3.798927.204361 6.58181.8013 7.482376 5.284882 4.113961-7.238251 14.159218-11.464966 22.319435-9.83107 6.25689 1.252762 12.512207 2.513321 19.353455 4.052322 1.786377.584671 3.572754 1.169357 5.976059 1.834824.777084.656509 1.554184 1.313003 2.333481 2.414596 0 0-.044571.444458-.66127.565506-.403321 3.164933.898986 3.952454 5.479889 2.967682 1.756286.682907 3.512573 1.365814 5.453521 2.771744 2.478455 1.682144 4.851883 2.324051 7.650849-.75264 1.062652-.022308 2.125305-.044617 3.512008.551819 4.956711 1.792526 8.691925.535599 11.346253-3.61911.439956-.011322.879913-.022644 1.782394.515015 5.181275.509536 8.646942-1.745789 11.082764-6.921128 2.154465-1.53128 4.308929-3.062561 6.806442-4.146209.557221-.473572 1.114441-.947129 2.164368-1.439545 0 0 .492569-.022629 1.373764-.023804 2.129577.200775 4.256164.511902 6.389602.569565 1.921677.051926 4.533692.591965 5.658005-.410416 4.748307-4.233383 10.355973-8.043503 11.426193-15.817337 3.151017-2.52124 6.302018-5.04248 10.139435-7.504883.410874-.660629.821732-1.321243 1.281388-2.060333 0 0 .0793-.047394.738403.040756M122.811287 14.032318c-.161293-2.69182 1.778374-6.345189-2.997582-6.975867-2.677742-.353604-8.850685 3.986735-9.515625 7.727604 4.183632 0 8.161728 0 12.513207-.751737M18.474518 153.998062c4.289942.61586 5.171026-2.66365 5.228458-5.506531.02948-1.459198-2.355646-4.262375-3.455513-4.169128-2.045948.173447-5.061511 1.632019-5.636986 3.270767-.752397 2.142548-.984032 5.722702 3.864041 6.404892"/>
  <path fill="#fcf8f4" d="M1.000001 158.454102c2.775643 1.216201 5.551285 2.886489 8.326926 4.556793-.101155.579056-.20231 1.158111-.303466 1.737167-2.423677 1.08049-4.847354 2.16098-7.647246 3.246689C1 164.969406 1 161.938812 1.000001 158.454102"/>
  <path fill="#f1e8e3" d="M199.003937 181.016357c-2.15445 1.531296-4.308914 3.062577-7.098587 4.824097-3.396881 1.864029-6.158554 3.497803-8.877213 4.768372.352814-1.779633.662644-3.19606 1.325989-4.646241 2.670059-1.809585 5.167618-3.405822 7.204712-5.458923.710876-.716461.850357-3.353805.284881-3.756012-2.964416-2.108566-1.344528-4.031113-.076232-5.905762 1.775085-2.623794 1.630661-4.482208-.944931-6.759475-3.311036-2.927506-6.009644-6.542145-9.029389-9.807785-.982162-1.062134-1.98819-2.312729-3.251129-2.867981-5.25705-2.311356-10.608704-4.427567-16.532608-3.779267 2.355987-2.771484 4.672684-5.201126 7.319153-7.637786.768936-.028504 1.208145-.050004 1.967666-.086762.793625-.628509 1.266938-1.241745 1.73967-1.867462-.000564-.012467-.025314-.01236.323822-.017655 1.459412-.660583 2.569687-1.315887 4.04895-1.986648 1.106919-.043503 1.844895-.071564 2.742264.236359 2.239655 3.40979 5.072754 2.991577 8.096024 2.165893 3.49118-.953476 6.622497-.936096 7.403518 3.626114-1.216049.946915-2.351318 1.830917-3.486587 2.71492.131409.408539.262817.817093.394226 1.225647 3.480423 0 6.960831 0 10.829849.04657 3.461441.683822 6.534287 1.321075 9.654053 2.343872-.232605 3.101669-1.692642 6.537201-.561371 8.3936 2.921753 4.794556-1.2668 7.528244-2.083542 11.166565-.310409 1.382782-.924972 2.697281-1.681335 4.17894-1.192566.554993-2.104691.973923-3.0168 1.392868.324295.419876.648605.839752.972916 1.259628.783004.081498 1.566009.162995 2.280471.593995-2.361847 1.774948-4.655136 3.200363-6.94844 4.625793 0 0-.492569.022629-1.039612.040131-1.018158.336486-1.489273.655441-1.960388.974395"/>
  <path fill="#fdfcf8" d="M137.99939 185c-6.256028-1.257095-12.511345-2.517654-18.768235-3.770416-8.160217-1.633896-18.205474 2.592819-22.319435 9.83107-.900566-4.483582-3.683449-5.080521-7.482376-5.284882-2.650711-.142609-5.208511-2.341507-7.767364-3.698196-1.00441-.532532-2.333565-2.0513-2.778275-1.802796-7.614212 4.254792-13.237282-3.190658-20.027904-3.230957-2.46045-.014618-4.932267.579102-7.384484.982819-1.435917.23642-2.9183.467758-4.243011 1.025955-1.37492.579392-2.953896 1.310867-3.698826 2.459045-.332691.512803.904655 2.500611 1.859234 3.315537 4.911537 4.192734 4.896084 11.448059-.172779 14.934677-2.303021 1.584137-11.218556.860489-12.613976-1.350891-1.753681-2.779114-2.649627-5.801514.560353-8.459137 1.644783-1.36174 3.137321-2.907379 5.743343-5.34845-2.929878-.708557-4.801933-1.2957-6.718903-1.598739-4.989847-.78888-5.984247-2.622025-3.668783-7.034989 2.597603-4.950683 7.977484-7.152893 13.014761-5.327438 5.917622 2.14444 12.845749-2.632965 11.089737-8.459061-1.326824-4.40216-5.277077-8.107269-8.451786-11.784103-.679512-.786987-3.049046-.114762-6.120171-.114762 2.360703-1.762039 3.840195-2.866333 5.884488-4.127456.731887-.156799.898979-.156769 1.20726.132019 1.045795.765335 1.950397 1.241913 2.901542 2.094513.688507 2.344681 1.543366 4.273132 1.924336 6.291031.628044 3.326599 2.121872 4.211105 5.322906 2.466125 1.430954 1.378845 2.570336 2.619003 3.703213 4.245712-.412235 1.63089-.776394 2.890641-1.231277 4.11673-1.544224 4.162323 2.009456 10.062134 6.427589 10.295929 4.53817.240173 9.094185.201416 13.641914.18071 2.64682-.012054 4.470292.199844 5.410492 3.550476 1.347168 4.80101 7.487847 5.936951 11.180428 2.471619 4.473877-.669358 8.523796-1.337967 12.98172-2.005814 1.228935-.072235 2.157829.079804 2.85363-.253998 5.315613-2.550277 10.225265-2.516449 15.458237.77298 1.660026 1.043488 4.817924-.295898 7.620903-.536636.771057.023849 1.211578.039489 1.686004.385116 1.014435 1.765534 1.994965 3.201096 2.975495 4.636658m-92.121521 10.223984c-.246674-1.990341-.195126-5.592743-.78965-5.702729-3.239693-.599304-7.13786-1.97087-9.432839 1.769394-.601341.980042-.142627 3.692551.734139 4.29712 2.768238 1.908752 5.947841 4.213531 9.48835-.363785"/>
  <path fill="#ede7de" d="M198.995956 62.001022c.320816 1.099461.641633 2.198922 1.017197 3.962944.362808 1.456505.670853 2.248459.616425 3.046265-1.192536 1.227425-2.445908 2.354385-2.745407 3.694527-.373627 1.671837.03862 3.519325-.249924 5.332481-1.466995 1.496994-2.760636 2.847969-3.639221 4.42952-1.88324 3.390014-3.432923 7.024566-8.312683 7.576706-.77443.679191-1.228074 1.317474-2.081635 1.956321-1.466232.001259-2.532547.001954-4.034912.001908-4.996964-.752846-8.068085.638107-8.203949 5.65477-4.969177.278823-7.132645-1.62809-6.416946-6.408448.162109-1.082657-.384705-2.254921-.488053-3.396537-.64537-7.129616-4.444549-14.652741 2.898163-20.78566.602203 1.162613 1.328079 3.052437 1.025162 3.23497-3.738083 2.252533-1.787079 5.394485-.276154 6.964599 3.447128 3.582177 7.485703 6.67849 11.603531 9.507004 3.635468 2.497177 6.49939 1.117829 8.35051-2.830375 1.581466-3.373055 2.653595-7.526978 5.292083-9.7276 3.436753-2.866417 2.842377-4.370804.375733-7.064324-4.474594-4.886177-9.667328-9.277168-10.300705-16.755386-.147568-1.742211-2.699509-3.544499-4.501083-4.814045-2.104432-1.482971-4.598862-2.412525-6.776795-3.920422.382629-1.77885.617981-3.219471 1.183868-4.516735 3.677186.897045 7.018311 1.677498 10.3779 2.368206.389587.080094.881515-.337681 1.675064-.485847 6.442245 5.054088 10.398285 11.454696 12.624527 18.976558-.000778.442742-.001572.885479.014816 1.959339.335587 1.100499.654037 1.569882.972488 2.039261"/>
  <path fill="#fcfaf5" d="M45.001068 146.000092c-.167091-.000031-.334183-.000061-.751938-.000092 1.546398-3.96524 3.387146-7.911591 5.114464-11.906982.533608-1.234269 1.414642-2.862748 1.016327-3.865906-2.335075-5.880821-1.094757-8.569367 4.509621-11.169991 3.49012-1.619537 6.736095-3.999244 9.650528-6.543152 1.945549-1.698219 1.698638-3.906379-.452439-6.030059-1.002853-.990097-1.679336-3.983223-1.021648-4.690773 2.72073-2.926972 5.349491-5.558373 3.50214-8.409172 2.376419-2.785111 3.914932-4.884972 5.768486-6.654892 1.210571-1.155953 2.872764-1.842385 4.342811-2.722146 1.295617-.77536 3.432671-1.307434 3.707642-2.342796.377235-1.420418-.226768-3.550819-1.185242-4.765404-1.262397-1.599716-3.262161-2.626548-4.973518-3.85997-1.254196-.903938-2.554459-1.74395-3.834198-2.612442 1.593254-.808853 3.177559-1.636383 4.788513-2.408294.270294-.129517.65596-.018235 1.58841.233291 1.476593.750366 2.353088 1.249222 3.230339 2.143006.124893 1.198768-.037163 2.256942.416748 2.767715 5.48838 6.175919 5.603378 10.158814-.619133 14.674774-2.511589 1.822785-2.954727 3.615021-2.797104 6.562424.333549 5.143425-3.444611 5.07856-6.381088 5.519226-3.549164.532608-4.154374 1.92794-2.59549 5.033623 3.103508 6.182892-1.087608 16.168922-7.32489 16.625671-4.379143.320671-8.086769.840943-5.86311 6.848992.301045.813385-.587459 2.202514-1.165924 3.183013-2.845493 4.82309-5.772247 9.598252-8.670307 14.390336m63.99588-110.002411c1.255226-3.826168 3.60289-6.077542 7.91774-6.042097 3.457527.0284 5.605065-1.142188 6.322411-5.301522.826782-4.793794 4.462516-7.440809 9.597938-7.685409 2.449814-.116686 4.88118-.621235 7.98613-.957896.832245-.008487.999283-.009178 1.176788.336743.330124 1.439674.649811 2.532734.731781 3.803949-.412262.736235-.586776 1.294316-1.169861 1.849426-11.326431-1.56928-13.150283-.43991-16.559753 10.371161-1.733047 4.791523-4.581131 6.436131-8.67926 4.660091-2.829552-1.226272-4.979469-.141578-4.653275 2.103405.895844 6.165497-3.41111 9.110024-6.548462 12.960946-.899574 1.104183-1.132415 2.842144-1.418808 4.337791-.765495 3.997765-.984108 8.164471-2.304115 11.956287-.449646 1.291657-3.482323 2.06337-5.432579 2.3153-1.227234.158532-2.636192-1.089645-3.736908-1.979568 3.364975-1.134392 5.658318-2.360085 3.919769-6.357456-.540504-1.242764-.124954-2.901345-.147094-4.369561.322212-.102043.583152-.289413 1.194336-.928695 3.239395-3.480839 6.313812-6.413964 8.790901-9.7859 1.235061-1.681237 1.376892-4.165577 2.013237-6.286641.000084-.749439.000168-1.498878.245422-2.790676.414673-1.098133.584168-1.653904.753662-2.209678"/>
  <path fill="#fdf4f3" d="M266.027954 67.990013c.656006 1.132088 1.855255 2.25235 1.880219 3.398178.166504 7.648201.227752 15.306389-.010865 22.950913-.06961 2.231048-1.51477 4.393493-1.78601 6.652626-.19162 1.595939.532806 3.301834.848236 4.958633.503357-.049728 1.006683-.099457 1.510009-.149177.897889-1.247895 1.795777-2.495781 2.681153-3.726296 3.370209.829949.045379 6.867348 5.434021 6.304527.459717 2.428261.55777 4.489464.721588 7.932969 3.434204-2.826394 5.55246-4.569756 7.670715-6.313118.215637.238945.644593.50782.615876.712463-.830811 5.919929-10.221314 16.690803-16.193604 17.92305.322021-1.775162.959534-3.205231 1.908508-4.679291-1.102844-4.238762-2.517181-8.433533-3.857818-12.409813-2.639771-.20198-5.035736-.385299-7.387482-.948761 4.865753-14.056389 6.080963-28.23835 5.965454-42.606903"/>
  <path fill="#fcf8f4" d="M198.403412 57.909775c-2.621002-7.429215-6.577042-13.829823-13.039032-19.250183-2.155838-5.536648-5.62674-9.159329-10.527863-11.887001-.714584-1.095593-1.309066-1.912217-1.903549-2.72884 1.355469-2.045035 2.952561-3.976481 3.985275-6.173243.744324-1.58325.400498-3.684086 1.164734-5.250171.68982-1.413579 2.043457-2.893449 3.451935-3.427697.925583-.35109 3.33873.697388 3.553879 1.519838.449585 1.718531.293472 3.86555-.373108 5.533038-.723038 1.808695-3.650574 4.238794-3.298523 4.727369 2.070404 2.87315 4.396545 6.137976 7.439026 7.594761 4.184769 2.003733 6.409882 3.17222 3.571411 8.277817-2.324829 4.181705.17363 6.05542 8.026459 5.609657-.56218 5.215359-1.10904 10.288681-2.050644 15.454655"/>
  <path fill="#e8e0d8" d="M270.996338 123.999466c-.637512 1.430084-1.275025 2.860153-1.975098 4.633392-4.151733 3.396073-8.335968 6.333237-12.274658 9.569245-1.254974 1.031036-2.459457 2.779342-2.65686 4.330566-.956513 7.516419-.832306 7.532227-8.664093 8.441544 1.005615-1.021027 2.298584-1.262848 2.992843-2.039688 1.364731-1.527085 3.357575-3.358796 3.344803-5.051316-.019989-2.647934-.430496-6.173904-4.744537-6.275024-.340286-2.44603-.677551-4.532868-1.073029-6.968491-2.017257-.449127-3.976318-.549484-5.936889-1.023269-.004929-1.12027-.008362-1.867127-.009613-3.028214-.429795-3.299538.635421-7.014221-4.220444-7.783798-.424545-2.065827-.599823-3.934815-.775162-6.22921-.165527-3.041779-.330978-5.65815-.496429-8.274521.572326-.142654 1.144653-.285316 1.716964-.427971 1.566269 4.697487 3.132523 9.394974 4.698792 14.092453.775207.609047 1.550415 1.218086 2.325622 1.827126.583832-1.5943 1.167664-3.188599 1.893784-4.461922 1.711334 2.767815 3.28038 5.214645 4.991791 7.951401 1.051346.767799 1.960312 1.245682 2.860489 2.123207-.800904 3.638206-1.592987 6.876747-2.673722 11.295433 2.614746-1.038269 4.649399-1.481995 6.265198-2.555924 4.890564-3.250549 9.618775-6.745384 14.410248-10.145019"/>
  <path fill="#ecb0ba" d="M254.015182 35.970825c.909714.821213 1.819428 1.642426 2.895646 3.088532 1.14981 2.371437 2.133148 4.117984 3.392212 6.077602.761688 1.75293 1.24768 3.29279 1.735412 5.140354.33606.778519.670349 1.249329 1.017121 2.037865.012939.740581.013427 1.163437-.045685 1.912529-2.704224 2.636768-4.583069-.425015-4.446167-1.411675.96759-6.971977-4.345795-8.583442-8.791489-10.613437-5.858398-2.675072-6.665207-1.936188-6.761185 5.140102-.00798.773235-.010711 1.215222-.273727 1.86879-.08139 1.405487.097519 2.599399.272354 4.042091-.004074.248783.004044.74635-.117035 1.011643-.371414.790283-.621765 1.315277-1.121429 1.950191-.698304.660717-1.147263 1.21151-1.97377 1.734913-2.778199-.346832-4.292313-5.70031-7.523285-1.293076-2.765183 3.771878-5.517029 7.553551-8.522782 11.159478-.433838-.73674-.619644-1.302056-.758606-2.222153.83104-1.992806 1.382233-3.802399 2.439972-5.239052 4.487427-6.094948 9.185639-12.034458 13.689667-18.117508 3.877426-5.236748 9.215057-7.57222 14.892776-6.267189"/>
  <path fill="#f3d4d7" d="M253.003418 125.005325c-.908981-.477874-1.817947-.955757-2.707672-2.086647.57872-4.075737 1.138153-7.498451 1.738006-11.284889.682358-2.453438 1.324295-4.543159 2.344346-6.637855 5.096694-1.831116 6.337844-4.758698 4.617446-10.375.00409-1.121506.006714-1.869172.377289-2.68982.786865-1.691307 1.205811-3.309631 1.914917-5.210274.430207-5.094039.570221-9.905761 1.052063-14.910408.775025-3.734672 1.208252-7.276428 1.888458-10.824768.24701-.006599.741181-.005947.741181-.005947.346069 2.065823.692108 4.131642 1.04834 6.603886.125671 14.774963-1.089539 28.956924-6.002411 43.386185-2.398163 5.180519-4.705063 9.608024-7.011963 14.035537"/>
  <path fill="#fadbdf" d="M184.00061 185.996338c-.309829 1.416428-.619659 2.832855-1.267944 4.639831-.804764.709107-1.271072 1.027649-1.737396 1.346192-.439957.011322-.879914.022644-2.009796.070938-2.465241.657257-4.24054 1.277557-6.01149 1.566391-.325775-1.090927-.655915-1.850403-1.018173-2.960358-.551651-1.168106-1.007905-2.035019-1.600571-2.795654-5.549973-7.123032-5.503632-7.071854.389038-13.886307.831009-.961029.848389-2.62561 1.604629-4.005707 3.517106-1.397567 6.671952-2.753967 9.826798-4.110382.23909.404755.478165.809494.717255 1.214234-1.573716 1.709564-4.661774 3.658493-4.436478 5.083679.668961 4.231842-2.325806 10.323563 4.755188 12.147018.382675.098542.531341 1.105851.78894 1.690125"/>
  <path fill="#bec0b0" d="M247.021729 137.967346c4.31105-.258041 4.721557 3.267929 4.741546 5.915863.012772 1.69252-1.980072 3.524231-3.344803 5.051316-.694259.77684-1.987228 1.018661-3.214538 1.787399-1.650772.902664-3.096558 1.520248-5.189408 2.223785-1.149856.652024-1.652664 1.218079-2.155471 1.784149 0 0-.0793.047394-.392289.145935-.760238.700013-1.207519 1.301484-1.654815 1.902955-3.151001 2.52124-6.302002 5.04248-9.974793 7.881256-1.285934.666031-2.050079 1.014526-3.160095 1.297226-.800003-1.038926-1.25412-2.01204-1.698151-3.301865.0327-.738586.055298-1.160477.391129-1.619904 1.084671-.372421 1.856094-.70729 2.946701-1.062103 1.100952-.345352 1.882736-.670761 2.971115-1.133545 2.154678-2.243973 4.404739-4.127975 5.731171-6.523407 1.1884-2.146194 1.359832-4.855514 2.007248-7.642547.681625-1.438477 1.335922-2.550827 2.237854-3.66446.247619-.001266.742859-.004943 1.123642-.048339 2.459411-1.009537 4.53804-1.975678 6.95288-2.944733.784501-.01825 1.232789-.033615 1.681077-.048981"/>
  <path fill="#fae5e6" d="M253.953339 35.625267c-5.615876-.959473-10.953507 1.375999-14.830933 6.612747-4.504028 6.08305-9.20224 12.02256-13.689667 18.117508-1.057739 1.436653-1.608932 3.246246-2.776977 5.30352-3.812561 5.724182-7.241288 11.029122-10.973725 16.49318-2.092529 1.388397-3.881363 2.617683-5.685165 3.477317-.047333-1.108757-.079712-1.847854-.206955-2.921119-.351898-1.446518-.608933-2.558869-.868851-3.993897-.313431-1.11808-.623993-1.913482-.962967-3.053314-.668914-1.785438-1.309417-3.22644-1.57962-4.671944 2.93692.564415 5.48436 1.258873 8.077408 1.654602 1.526962.233025 3.979584.627831 4.5522-.140693 3.30249-4.432335 5.790253-9.5014 9.289047-13.749355 3.451249-4.190217 2.193421-10.860844 7.717957-13.73988 3.936279-5.263378 8.694138-9.532703 15.302948-10.822971 2.04245-.398755 4.374176.6842 6.6353 1.434299"/>
  <path fill="#fcf8f4" d="M231.62973 45.014931c-5.139175 2.878044-3.881347 9.548671-7.332596 13.738888-3.498794 4.247955-5.986557 9.31702-9.289047 13.749355-.572616.768524-3.025238.373718-4.5522.140693-2.593048-.395729-5.140488-1.090187-8.320908-1.822166-.790176-.714493-.966552-1.265907-1.142914-1.817329-.308059-.791947-.616104-1.583901-.935943-2.696404 3.713394.304741 7.418487 1.17038 11.169739 1.483734 3.352829.280068 4.999816-3.524513 3.990478-9.061638 3.493622-.955833 4.643646-3.210609 2.645233-6.731262 4.650421-2.426494 9.016617-4.704689 13.768158-6.983871"/>
  <path fill="#e2dccc" d="M172.699097 24.038815c.828354.821559 1.422836 1.638183 1.98822 3.029556-2.91423.359253-5.799347.143762-8.737366-.415199-2.685455-1.781102-5.318008-3.218731-7.8974-4.995858.958344-1.145546 1.863495-1.951597 3.023102-2.984226-.953705-.647503-1.603958-1.470608-2.214828-1.442343-4.247452.196539-8.496445.48433-12.719803.96414-.771668.087666-1.428223 1.188458-2.365265 1.836092-.227326.014513-.680283.063381-.711991.032797-.031707-.030584-.096313-.090481-.096313-.090481-.319687-1.093059-.639374-2.186119-.927429-3.968795.352127-1.785245.672638-2.880877.993149-3.976509.410995-.041503.821991-.083006 1.613235.223545 2.336655 1.792709 4.418869 4.526021 6.217102 4.350465 2.167465-.211607 4.093826-2.893017 6.48288-4.486742 4.454407 3.309985 8.550506 6.601408 12.646606 9.892826 0-.000002.007004-.008236.043534.316639.678283.776049 1.320068 1.227223 1.961837 1.678395 0 0 .466843.030763.70073.035698"/>
  <path fill="#f7b8c3" d="M264.976624 60.564438c-.007172.415279-.501343.414627-1.093506.457519-2.472596-.638916-4.467957-1.114841-6.191986-2.076927-1.098847-.613216-1.795655-1.946872-2.677155-3.331856-.670547-1.458862-1.336685-2.543365-2.043915-3.990737-2.532257-7.077858-2.532257-7.077858-9.95375-4.610989.090713-6.745041.897522-7.483925 6.75592-4.808853 4.445694 2.029995 9.759079 3.64146 8.791489 10.613437-.136902.98666 1.741943 4.048443 4.680908 1.583954.78305.427304 1.271789 1.00856 1.760559 1.589821-.007141 1.386452-.014252 2.772904-.028564 4.574631"/>
  <path fill="#fdf9ee" d="M223.022934 166.023026c.764145-.348496 1.52829-.696991 2.60527-1.097397-.339492 7.190673-5.947158 11.000793-10.695465 15.234176-1.124313 1.002381-3.736328.462342-5.658005.410416-2.133438-.057663-4.260025-.36879-6.8302-.56897 1.852707-1.42485 4.145996-2.850265 6.825333-4.769745 2.841629-2.06604 5.297211-3.638015 8.053345-5.364639 2.100265-1.384369 3.899994-2.614105 5.699722-3.843841"/>
  <path fill="#fcf8f4" d="M169.996246 21.575451c-4.09935-2.858786-8.195449-6.150209-12.801513-9.788711-2.737595-1.158955-4.965241-1.97083-7.397507-3.047185-1.070038-.424986-1.935455-.585488-2.800858-.74599.946549-.852562 2.126069-2.586759 2.800278-2.408615 3.330551.880025 6.540329 2.233066 9.763229 3.494588.917038.358954 1.679917 1.143941 2.607224 1.439391 7.630432 2.431116 7.684494 2.47408 7.829147 11.056522"/>
  <path fill="#fdfcf8" d="M95.637833 58.041531c.383697 1.425956-.031853 3.084537.508651 4.327301 1.738549 3.997371-.554794 5.223064-4.265182 6.325649-1.675446-.071838-2.77874-.384659-4.103958-.961327-1.407959.242493-2.59401.748833-4.125092 1.289872-1.447235.348579-2.549438.662475-3.651642.976364-.876495-.498856-1.75299-.997712-2.815086-1.747826 3.992912-1.591026 8.201584-2.84684 12.328819-4.329357 1.036995-.37249 1.881485-1.40638 2.691849-2.253578 1.085823-1.135193 2.052338-2.384518 3.431641-3.627098"/>
  <path fill="#fcf8f4" d="M122.624596 14.408186c-4.164788.375869-8.142884.375869-12.326516.375869.66494-3.740869 6.837883-8.081208 9.515625-7.727604 4.775956.630678 2.836289 4.284047 2.810891 7.351735M18.062782 153.993561c-4.436337-.677689-4.204702-4.257843-3.452305-6.400391.575475-1.638748 3.591038-3.09732 5.636986-3.270767 1.099867-.093247 3.484993 2.70993 3.455513 4.169128-.057432 2.842881-.938516 6.122391-5.640194 5.50203"/>
  <path fill="#ecb0ba" d="M146.891953 189.086227c-.7771-.656494-1.5542-1.312988-2.645569-2.33284-.682175-1.132186-1.050064-1.901031-1.365891-3.078979-.595672-2.493469-1.243423-4.577835-1.882202-6.913116.01088-.418198.012802-.585465.412872-.754853 1.460495-.002319 2.522843-.002548 3.607972.294022.341918.764175.661087 1.231552 1.017852 2.060837 2.509278 3.694259 4.976334 7.030044 7.455262 10.356979.826141 1.108734 1.682739 2.194763 2.112915 3.292099-1.787232-.017715-3.161957-.036331-4.550843-.055267-.014175-.000321-.011306-.021057-.074707-.353882-1.404831-1.060227-2.746246-1.787613-4.087661-2.515"/>
  <path fill="#f5c6cb" d="M150.001862 9.004036c2.22763.811874 4.455276 1.623749 6.834564 2.764139-1.87909 1.940807-3.805451 4.622217-5.972916 4.833824-1.798233.175556-3.880447-2.557756-5.909195-4.385244.405411-.994219.883148-1.605608 2.013794-2.236322 1.446549-.338349 2.240143-.657374 3.033753-.976397"/>
  <path fill="#f6cbd0" d="M151.068497 191.955414c1.37471.018631 2.749435.037247 4.885879.052673 1.860718-.336944 2.959717-.670685 4.457794-1.004364 1.463517-.001999 2.52797-.004089 3.94928.031464 1.780869.996979 3.204865 1.956329 4.409882 3.037246-.401398.395783-.583817.670014-.766236.94426-1.062652.022308-2.125305.044617-4.023956.050507-2.890503.004379-4.945007.025192-6.999512.04602-1.756286-.682892-3.512573-1.365799-5.611541-2.346252-.328995-.468888-.315293-.640213-.30159-.811554"/>
  <path fill="#fdfcf8" d="M107.652679 41.053673c-.29116 2.065426-.432991 4.549766-1.668052 6.231003-2.477089 3.371936-5.551506 6.305061-8.682152 9.567222-1.457687-4.520412 2.417679-6.854523 4.541229-9.915687 1.501335-2.164231 3.620461-3.899907 5.808975-5.882538"/>
  <path fill="#fdf4f3" d="M265.014648 55.626038c-.49823-.217492-.986969-.798748-1.710449-1.552285-.235199-.595138-.235687-1.017994-.02478-1.928554-.273346-1.050331-.758026-1.612957-1.242737-2.175587-.485962-1.539863-.971954-3.079723-1.74411-5.211761-.627106-2.308846-.968018-4.025521-1.30896-5.742199 6.079834 3.101375 7.763763 7.630512 6.031036 16.610386"/>
  <path fill="#f4e0dc" d="M284.937622 109.631546c-2.078857 2.111084-4.197113 3.854446-7.631317 6.68084-.163818-3.443505-.261871-5.504708-.310242-7.92025 2.643433.206619 5.946778-3.777504 7.941559 1.23941"/>
  <path fill="#fdf4f3" d="M181.226532 192.256851c.235062-.593033.70137-.911575 1.46315-1.257461 3.057114-1.661133 5.818787-3.294907 8.943237-4.967804-1.528183 4.753967-4.99385 7.009292-10.406387 6.225265m-38.398117-8.173355c.367905.76886.735794 1.537705 1.109512 2.629517-1.780563-.26175-3.56694-.846436-5.645935-1.572052-1.273132-1.576523-2.253662-3.012085-2.918182-4.750702 2.695526 1.029053 5.075058 2.361145 7.454605 3.693237m25.338699 11.242569c.020401-.583618.20282-.857849.941162-1.241592 1.004609-.127854 1.453293-.146195 2.228287-.14328.761887.017486 1.197479.013717 1.633057.009948 1.775314-.620285 3.550613-1.240585 5.685974-1.886352-1.634522 4.106247-5.369736 5.363174-10.48848 3.261276m-11.093155.148666c1.962174-.382339 4.016678-.403152 6.509766-.377288-1.565552 3.062866-3.93898 2.420959-6.509766.377288m-6.019638-3.519622c.000473.171646-.013229.342971-.036651.771789-3.885804 1.322388-5.188111.534867-4.247223-2.435211 1.782562.677353 3.027572 1.159866 4.272568 1.642365 0 0-.002869.020736.011306.021057"/>
  <path fill="#fae5e6" d="M258.662048 39.00589c.662506 1.72644 1.003418 3.443115 1.354798 5.538895-.97287-1.367444-1.956208-3.113991-2.950592-5.218369.417358-.348648.845794-.339466 1.595794-.320526"/>
  <path fill="#f6cbd0" d="M150.979614 191.601227c-1.181595-.149674-2.426605-.632187-3.900818-1.370072-.229217-.255371-.184646-.699829-.185745-.922378 1.340317.504837 2.681732 1.232223 4.086563 2.29245"/>
  <path fill="#faf0e4" d="M142.671265 12.081254c.041397 1.042367-.279114 2.137999-.641693 3.576632-.209122.343693-.37616.344384-.793915.343485.190735-1.290009.632217-2.578431 1.435608-3.920117m7.125961-3.341701c-.588974.583506-1.382568.902531-2.521668 1.176405-.328125-.461629-.31076-.878108-.2863-1.60849.872513-.153401 1.73793.007101 2.807968.432085"/>
  <path fill="#fcf8f4" d="M199.224579 61.83078c-.547074-.299137-.865524-.76852-1.197205-1.536987.466446.256195.946137.811466 1.197205 1.536987"/>
  <path fill="#e8e0d8" d="M236.155167 156.808167c.10408-.63089.551361-1.232361 1.287216-1.893128-.122284.601303-.533142 1.261917-1.287216 1.893128"/>
  <path fill="#fdf9ee" d="M199.175476 181.240173c.299576-.54277.770691-.861725 1.542511-1.188781-.256546.465484-.813766.939041-1.542511 1.188781"/>
  <path fill="#fcf8f4" d="M171.958008 23.681349c-.60141-.129404-1.243195-.580578-1.926377-1.353144.601075.129528 1.243546.580452 1.926377 1.353144"/>
  <path fill="#fdfcf8" d="M108.704941 36.029213c.122513.524242-.046982 1.080013-.461853 1.803425-.106964-.478874.031441-1.125382.461853-1.803425"/>
  <path fill="#e8e0d8" d="M238.188599 154.773926c.173263-.610138.676071-1.176193 1.490738-1.762543-.179154.588699-.670166 1.197662-1.490738 1.762543"/>
  <path fill="#fae5e6" d="M184.354126 185.962585c-.611115-.550521-.759781-1.55783-1.142456-1.656372-7.080994-1.823455-4.086227-7.915176-4.755188-12.147018-.225296-1.425186 2.862762-3.374115 4.436478-5.083679-.23909-.40474-.478165-.809479-.717255-1.214234-3.154846 1.356415-6.309692 2.712815-10.199143 4.109208-1.479995.043594-2.225387.047195-3.128677-.270279-1.061127-2.381974-1.76033-4.570145-2.938873-6.45932-.793747-1.27237-2.126343-2.397965-3.475845-3.07512-1.104981-.554473-2.591034-.349578-3.908158-.481323.681961-1.335602 1.363938-2.671219 2.222885-4.353409-.842605-.706955-1.818206-1.525497-2.785919-2.592269.007858-.24823.043518-.743653.386826-.776444 1.437057-1.35199 2.530807-2.671188 3.631836-3.985352.007278.005036-.010514-.007766-.010514-.007766 5.963211-.990128 11.314865 1.126083 16.571915 3.437439 1.262939.555252 2.268967 1.805847 3.251129 2.867981 3.019745 3.26564 5.718353 6.880279 9.029389 9.807785 2.575592 2.277267 2.720016 4.135681.944931 6.759475-1.268296 1.874649-2.888184 3.797196.076232 5.905762.565476.402207.425995 3.039551-.284881 3.756012-2.037094 2.053101-4.534653 3.649338-7.204712 5.458923"/>
  <path fill="#d9dac7" d="M158.005493 151.995117s-.03566.495423-.304657.937897c-1.728866 1.671768-3.188721 2.901047-4.955353 4.090881-.795898-.365463-1.285003-.691498-1.770324-1.387008-.322724-1.79155-.649247-3.213608-.607651-4.643204.853348-.106491 1.499252-.039139 1.799683-.329376 4.461044-4.309784 5.124527-11.470322 11.055435-14.82808.382766-.21672-.778824-3.161239-1.408783-5.10115-1.727707-1.089111-3.268631-1.913925-4.816025-3.115128-1.921097-2.111862-3.791107-3.900551-5.769287-5.560318-.98526-.826667-2.168656-1.417198-3.060684-2.366714 1.40213-.740296 2.602539-1.228439 4.163208-1.712319 1.798935-.662933 3.237594-1.330131 5.008148-1.991737.774429.011879 1.21698.01815 1.828552.340836 1.722092.770256 3.275162 1.224113 4.937241 1.936027.368606.753403.628219 1.248741.539474 1.780586-3.94902 1.116524-2.263229 4.003472-1.301666 5.174576 3.588196 4.370102 4.839783 9.447067 5.656021 14.775727-2.316711 2.429641-4.633408 4.859283-6.989395 7.630767-.039307.341828-.021515.35463-.368881.390229-1.443268 1.349563-2.539154 2.663543-3.635056 3.977508"/>
  <path fill="#eae7db" d="M202.99939 146h-10.441254c-.131409-.408554-.262817-.817108-.394226-1.225647 1.135269-.884003 2.270538-1.768005 3.486587-2.71492-.781021-4.56221-3.912338-4.57959-7.403518-3.626114-3.02327.825684-5.856369 1.243897-7.847077-2.442993 3.594788-1.396637 7.100037-2.180191 10.887955-2.680832 7.092682 1.418365 13.902725 2.553833 20.72258 4.075577 2.894348 6.540603 2.889526 6.4207-4.139908 6.703094-1.646667.066147-3.248611 1.244934-4.871139 1.911835"/>
  <path fill="#bec0b0" d="M191.005219 133.026581c-3.50528.783554-7.010529 1.567108-10.76474 2.627762-.986893.30516-1.724869.333221-3.121918.099594-.810425-4.095169-.961746-7.928673-.71434-11.760788 1.462585.000397 2.526428-.000588 4 .001236 5.368743.072159 3.015167-3.740151 3.716781-6.278061.708023-1.094025 1.293198-1.905899 2.184326-2.692856.785416.359871 1.264908.694824 1.698395 1.393326-4.036285 9.676346-3.932052 10.100326 3.184021 12.752945.48114.306946.661728.564544.735916 1.199859-.317947 1.096009-.618194 1.876496-.918441 2.656983"/>
  <path fill="#eae7db" d="M221.056793 161.073013c-.022583.421875-.045181.843766-.406708 1.584244-.778259.324829-1.217575.33104-2.010467.373383-1.720337 1.104446-3.199555 2.058548-4.42746 3.267868-1.83165 1.803894-3.486114 3.787719-5.215942 5.694992.475937-1.345612 1.0905-2.660111 1.400909-4.042893.816742-3.638321 5.005295-6.372009 2.083542-11.166565-1.131271-1.856399.328766-5.291931.936859-8.395568 1.079254-.387452 1.829956-.387406 2.830185-.385956.249527.001388.748551.004211.913727.327804.628784 2.250382.931808 4.236176 1.610825 6.083802.475448 1.293716 1.464431 2.398696 2.225448 3.97116.0206 1.151368.039841 1.919556.059082 2.687729"/>
  <path fill="#d0d2bf" d="M169.328583 139.989594c-1.145996-5.321641-2.397583-10.398606-5.985779-14.768708-.961563-1.171104-2.647354-4.058052 1.535919-4.904136 1.763794.386955 2.944977.539978 4.132126 1.063377 1.313599 2.464127 3.295776 4.417763 3.766754 6.685287.664108 3.197388.209381 6.627167.233002 9.957596 0 0 .02475-.000107-.294266.035767-.792816.643692-1.266617 1.251495-1.740417 1.859314-.439194.021499-.878403.042999-1.647339.071503"/>
  <path fill="#e5e2d4" d="M215.998169 148.001129c-.750687-.000061-1.501389-.000107-2.627564.001801-3.448333-.635285-6.521179-1.272538-9.98262-1.95636 1.233933-.713471 2.835877-1.892258 4.482544-1.958405 7.029434-.282394 7.034256-.162491 4.557495-6.702835 3.456848-.045532 6.505966.294953 9.560837 1.0681.314682 4.28711.365158 7.937714-5.089569 7.942688-.300858.000275-.600769 1.045944-.901123 1.605011"/>
  <path fill="#cacbb8" d="M173.359741 138.017715c-.372757-3.325134.08197-6.754913-.582138-9.952301-.470978-2.267524-2.453155-4.22116-3.436401-6.68666.764984-.368546 1.205581-.365334 1.855148-.087456 1.739304.744797 3.269638 1.214935 4.802551 1.938927.003922.423072.005265.592308.006592.761535.151322 3.833504.302643 7.667008.744095 11.777649-.82016.932419-1.930435 1.587723-3.389847 2.248306"/>
  <path fill="#dfdfcf" d="M208.715775 172.129547c2.010269-2.04332 3.664733-4.027145 5.496383-5.831039 1.227905-1.20932 2.707123-2.163422 4.39592-2.918198-.313782 2.422745-.9496 4.531967-1.585403 6.64119-2.455597 1.571991-4.911179 3.143966-7.684266 4.860489-1.100494.063049-1.883499-.018448-2.666503-.099946-.324311-.419876-.648621-.839752-.972916-1.259628.912109-.418945 1.824234-.837875 3.016785-1.392868"/>
  <path fill="#d9dac7" d="M171.296249 139.902832c.153473-.59256.627274-1.200363 1.42067-1.831573-.153732.589828-.627045 1.203064-1.42067 1.831573"/>
  <path fill="#fbf5ea" d="M45.142258 146.288849c2.75687-5.080841 5.683624-9.856003 8.529117-14.679093.578465-.980499 1.466969-2.369628 1.165924-3.183013-2.223659-6.008049 1.483967-6.528321 5.86311-6.848992 6.237282-.456749 10.428398-10.442779 7.32489-16.625671-1.558884-3.105683-.953674-4.501015 2.59549-5.033623 2.936477-.440666 6.714637-.375801 6.786468-5.517563 3.193131-.648498 4.213081.96444 3.406593 3.246658-1.08477 3.069733-2.72763 5.942254-4.314369 9.285958 1.309715.601379 2.905121 1.333931 4.464615 2.422912-2.383423 4.875519-4.059341 9.859375-9.446365 12.056633-.990914.404175-1.639908 2.209603-1.989479 3.492798-.540268 1.983284-.771302 4.065277-.980927 6.120941-.366058 3.589692-2.516609 8.072068 2.502175 9.813691 4.278488 1.484726 3.930526 3.810897 2.537765 6.840728-.757896 1.648728-2.155342 3.061753-2.632095 4.758713-.269104.95781.578094 3.157547 1.209488 3.276673 2.509178.473449 5.131401.346633 7.711639.445022 2.354385.089768 4.727615.028458 7.058128.314331 2.899201.355637 5.76307.999375 8.642197 1.518692.156494-.475296.312981-.950607.469475-1.425903-2.40448-2.145218-4.80896-4.290436-8.328827-7.430771 3.102623-.575562 4.680656-.690552 6.129608-1.184326 1.627655-.554688 3.196549-1.352295 4.687431-2.221832 2.447747-1.427613 4.68367-3.311158 7.267792-4.371537 1.216812-.499313 3.079132.34314 4.545792.866623.317772.113419.384636 2.106705.242584 2.149216-1.39727.417877-2.891548.503601-4.300407.89299-1.095032.302673-2.10785.902786-3.157212 1.370697.979744.784225 1.848137 1.833298 2.960915 2.301147 2.900612 1.219544 5.908333 2.184327 9.796951 3.582901-2.244171 1.735077-3.390793 2.621598-4.865944 3.762116 5.021233-.823349 9.490563-1.556183 13.969757-1.955429.009201.778488.008545 1.223358-.399215 1.677124-2.51088.346832-4.614891.683365-6.718399 1.02298-5.964417.962921-8.024521 3.696945-7.494072 9.771454.077209.88414-.022126 1.978927-.484841 2.68428-3.946365 6.015808-13.668297 5.718552-17.452316-.48613 3.686882-.261154 6.928078-.521957 10.169273-.78276-.024414-.494355-.048828-.988724-.073242-1.483078-3.548065-1.631165-7.048187-3.380387-10.662529-4.848389-2.106125-.855423-4.412361-1.762207-6.595688-1.687302-1.396476.047898-2.732925 1.845474-4.09629 2.858643.97908 1.15979 1.759834 2.635391 2.984359 3.404297 1.774453 1.114242 3.869729 1.717544 5.676583 2.886825-1.289353 5.389176-.067726 7.607346 3.546364 7.409424 6.197761-.339371 12.404594-.51329 18.441749-.444244-1.723625 1.435455-3.281395 2.558456-4.839165 3.681457-4.049911.66861-8.09983 1.337219-12.989929 2.005631-4.80027-.308991-9.616111.75119-9.35775-5.925629.024803-.640839-2.420898-1.618362-3.838577-2.018249-2.205666-.622132-4.513351-.88263-5.802414-1.11818-.153313-3.368088-.252708-5.551666-.352104-7.73526-2.196899.458023-4.397171.900971-6.586693 1.391892-.295799.066314-.516945.413772-.807602.562973-2.787124 1.430755-4.567413 1.108322-5.361778-2.415345-.31443-1.39476-1.895271-2.504028-2.899498-3.743286-1.139385-1.240143-2.278767-2.480301-3.859818-4.196624-.997875-1.844269-2.024208-3.213822-2.020008-4.580185.011486-3.736161-2.036911-4.492875-5.123676-4.215531-.904606-.476562-1.809208-.95314-2.855003-1.718475"/>
  <path fill="#fdf9ee" d="M58.994259 161.38623c1.010731.852692 2.591572 1.96196 2.906002 3.35672.794365 3.523667 2.574654 3.8461 5.361778 2.415345.290657-.149201.511803-.496659.807602-.562973 2.189522-.490921 4.389794-.933869 6.586693-1.391892.099396 2.183594.198791 4.367172.352104 7.73526 1.289063.23555 3.596748.496048 5.802414 1.11818 1.417679.399887 3.86338 1.37741 3.838577 2.018249-.258361 6.676819 4.55748 5.616638 8.933792 5.926376-2.852401 3.465531-8.99308 2.32959-10.340248-2.47142-.9402-3.350632-2.763672-3.56253-5.410492-3.550476-4.547729.020706-9.103744.059463-13.641914-.18071-4.418133-.233795-7.971813-6.133606-6.427589-10.295929.454883-1.226089.819042-2.48584 1.231281-4.11673"/>
  <path fill="#fdf4f3" d="M107.405121 179.99588c1.149757-1.123764 2.707527-2.246765 4.810562-3.848083 7.162186-1.380127 13.855721-2.915039 20.030106 2.015396.416091.712295.588836 1.259567.761566 1.806839-2.472443.248932-5.630341 1.588318-7.290367.54483-5.232972-3.289429-10.142624-3.323257-15.458237-.77298-.695801.333802-1.624695.181763-2.85363.253998"/>
  <path fill="#fbf5ea" d="M45.670879 195.556488c-3.333519 4.244812-6.513122 1.940033-9.28136.031281-.876766-.604569-1.33548-3.317078-.734139-4.29712 2.294979-3.740264 6.193146-2.368698 9.432839-1.769394.594524.109986.542976 3.712388.58266 6.035233"/>
  <path fill="#fadbdf" d="M133.337891 179.978241c-.503266-.555481-.676011-1.102753-1.092347-2.214722-.570587-2.63713-.897567-4.709594-.883056-6.742233 2.438446 1.354813 4.535415 2.66983 6.774383 4.273026 1.045487.764755 1.94896 1.241317 2.852448 1.717895.647751 2.084366 1.295502 4.168732 1.891174 6.662201-2.431625-.923004-4.811157-2.255096-7.540619-3.614121-.790405-.042572-1.230926-.058212-2.001983-.082046"/>
  <path fill="#fcf8f4" d="M48.0438 148.383362c3.040226-.653382 5.088623.103332 5.077137 3.839493-.0042 1.366363 1.022133 2.735916 1.728436 4.441482-2.759365 2.221161-4.253193 1.336655-4.881237-1.989944-.38097-2.017899-1.235829-3.94635-1.924336-6.291031"/>
  <path fill="#eceadb" d="M158.998718 116.01329c-.442535-.006279-.885086-.01255-1.655487-.400154-.05719-1.917923.213486-3.454529.573105-5.495971-1.84285.638664-3.093567 1.07212-4.203369 1.456733-.736237-1.678306-1.402603-2.97982-1.890076-4.345207-2.452438-6.869301-5.062668-13.538483-2.218384-21.209541 1.170121-3.1558 1.916031-7.669838-2.624054-10.363198.343293-1.112556.678895-1.887329 1.403245-2.659584 2.995376.850037 5.602005 1.697564 8.208618 2.545083.219726-.366639.439453-.733284.659179-1.099923-2.0811-1.785217-4.162201-3.570434-6.244568-5.356727 6.447983-7.059239 6.485169-7.182812 4.103562-12.8335-2.844315-6.748512-2.844315-6.748512 3.985931-9.427235-.70401-1.284969-1.090927-2.905598-2.117416-3.706119-4.406571-3.436539-3.813217-7.942376-2.899536-12.469277.251831-1.247705 1.166168-3.012296 2.132187-3.286438 1.012161-.287243 2.445816.946844 3.706421 1.490092 1.688919.727821 3.38858 1.430734 5.273483 2.413484 2.729599 2.090874 5.269317 3.912609 7.809051 5.734345-.235336 1.440616-.470688 2.881237-1.211303 4.696785-6.677948 3.176395-6.687668 3.21062-2.735794 10.26416-7.989869 2.724384-4.475205 7.746685-2.360611 12.613868.311676.717392.215301 1.612076.307708 2.424729-6.988311 6.199043-3.189132 13.722168-2.543762 20.851784.103348 1.141616.650162 2.31388.488053 3.396537-.715699 4.780358 1.447769 6.687271 6.416946 6.408448.135864-5.016663 3.206985-6.407616 8.198913-5.281723-1.124725 3.661628-2.639633 6.970085-4.279724 10.215271-.24887.492439-1.052597.922371-1.644607.990463-7.671341.882416-10.550339 7.363449-14.637711 12.432815"/>
  <path fill="#f0ebe3" d="M167.355011 67.065819c-.446808-.878777-.350433-1.773461-.662109-2.490853-2.114594-4.867183-5.629258-9.889484 2.360611-12.613868-3.951874-7.05354-3.942154-7.087765 2.588485-9.925923 2.683228 1.132962 5.177658 2.062516 7.28209 3.545487 1.801574 1.269546 4.353515 3.071834 4.501083 4.814045.633377 7.478218 5.826111 11.869209 10.300705 16.755386 2.466644 2.69352 3.06102 4.197907-.375733 7.064324-2.638488 2.200622-3.710617 6.354545-5.292083 9.7276-1.85112 3.948204-4.715042 5.327552-8.35051 2.830375-4.117828-2.828514-8.156403-5.924827-11.603531-9.507004-1.510925-1.570114-3.461929-4.712066.276154-6.964599.302917-.182533-.422959-2.072357-1.025162-3.23497"/>
  <path fill="#e8e5d5" d="M159.167755 116.329697c3.918335-5.385773 6.797333-11.866806 14.468674-12.749222.59201-.068092 1.395737-.498024 1.644607-.990463 1.640091-3.245186 3.154999-6.553643 4.71576-10.214524 1.071365-.373748 2.13768-.374443 3.924225-.417137 1.174179-.679924 1.628128-1.317856 2.082077-1.955788 4.559005-.511238 6.108688-4.14579 7.991928-7.535804.878585-1.581551 2.172226-2.932526 3.641357-4.427407.363617-.03939.366669-.037139.360916.336228-1.268814 3.030899-2.883346 5.583359-3.716232 8.369484-1.407181 4.707283-4.220505 7.947319-8.212784 10.729637-5.073334 3.535736-9.797928 7.592995-14.488663 11.638985-.955719.824348-1.319793 2.55635-1.564773 3.939354-.61174 3.453697-2.250351 5.439849-6.01886 4.95462-1.55307-.45385-3.10614-.907707-4.828232-1.677963"/>
  <path fill="#e8e0d8" d="M173.331161 37.143501c-2.870285-1.965084-5.410003-3.786819-8.000442-6.197952.190231-1.709234.431183-2.829069.672134-3.948906 2.885117.21549 5.770234.430981 8.804566.350693 4.930221 2.152927 8.401123 5.775608 10.207901 11.273472-.424744.553222-.916672.970997-1.306259.890903-3.359589-.690708-6.700714-1.471161-10.3779-2.36821"/>
  <path fill="#e8e5d5" d="M200.629578 69.010231c.538849.545563.715225 1.096977 1.135101 1.815956.884003 1.608582 1.524506 3.049584 1.823517 4.833344-2.089371 1.009399-3.837265 1.67604-5.585144 2.342682 0 0-.003052-.002251-.005188-.004364-.075073-1.773766-.48732-3.621254-.113693-5.293091.299499-1.340142 1.552871-2.467102 2.745407-3.694527"/>
  <path fill="#eceadb" d="M185.682343 90.043465c-.133194.59703-.587143 1.234962-1.36142 1.914329.133346-.596855.58699-1.235138 1.36142-1.914329"/>
  <path fill="#fdf6ea" d="M81 109c-1.595398-.732559-3.190804-1.465111-4.500519-2.06649 1.586739-3.343704 3.229599-6.216225 4.314369-9.285958.806488-2.282218-.213462-3.895156-3.404731-3.644981-.564865-2.550743-.121727-4.342979 2.389862-6.165764 6.222511-4.51596 6.107513-8.498855.619133-14.674774-.453911-.510773-.291855-1.568947-.416748-2.767708 1.101448-.708824 2.203651-1.02272 4.017082-1.367897 1.801086-.364006 2.890945-.696716 3.980812-1.029434 1.103302.312828 2.206596.625649 3.655319.970276 1.672852.648941 3.08181 1.897118 4.309044 1.738586 1.950256-.25193 4.982933-1.023643 5.432579-2.3153 1.320007-3.791816 1.53862-7.958522 2.304115-11.956287.286393-1.495647.519234-3.233608 1.418808-4.337791 3.137352-3.850922 7.444306-6.795449 6.548462-12.960946-.326194-2.244983 1.823723-3.329677 4.653275-2.103405 4.098129 1.77604 6.946213.131432 9.03891-4.590789.041794 3.316814-.283875 6.94207-.675011 11.296035-6.709549-5.618511-7.165573-5.412067-8.828087 1.922589-.358681 1.582409-.879082 3.759277-2.035599 4.421741-5.33348 3.05505-3.881111 9.136406-6.361213 13.42442-.684464 1.183406-.468849 3.40662.224624 4.659763.37513.677895 3.026886.930168 3.971558.320587 5.33535-3.442833 11.215996-2.315208 16.947884-2.483437 5.434433-.1595 9.846908 2.000016 13.425521 6.421097-.656707 4.147293-1.308044 7.872498-2.259521 11.860993-.462769 2.74797-.625412 5.232658-1.226349 7.716812-6.338211-.904038-12.224243-1.921097-18.146171-2.644348-1.862961-.227524-4.659737-.399048-5.589104.663406-3.580399 4.093178-7.256378 8.376724-9.541344 13.22773-1.401703 2.975853-2.336273 4.699814-5.712395 4.802902-6.188736.18895-12.370117.618904-18.554565.948372m3.01944-18.753784c-.841637.153244-1.683274.306488-2.52491.459724.174698.462174.349403.924347.524101 1.386521.823189-.468438 1.64637-.936867 2.000809-1.846245"/>
  <path fill="#faf0e4" d="M142.034851 72.002045c-3.584015-3.998993-7.99649-6.158509-13.430923-5.999009-5.731888.168229-11.612534-.959396-16.947884 2.483437-.944672.609581-3.596428.357308-3.971558-.320587-.693473-1.253143-.909088-3.476357-.224624-4.659763 2.480102-4.288014 1.027733-10.36937 6.361213-13.42442 1.156517-.662464 1.676918-2.839332 2.035599-4.421741 1.662514-7.334656 2.118538-7.5411 8.828087-1.922589.391136-4.353965.716805-7.979221.682823-11.673778 3.042008-10.50263 4.86586-11.632 16.439697-10.053929.655961.011757 1.150132.02694 1.148545.381157-.030884 1.063042-.060181 1.771866-.364365 2.549439-.39711.734213-.519333 1.399677-.64061 2.463787-.00563 1.461658-.012207 2.524671-.287551 3.866321-.03151 2.755555.205749 5.232472.425201 8.08059-.004135 1.114025.009537 1.856849-.015503 3.010834.584168 2.186336 1.207047 3.961513 1.835815 6.052276.011384.736408.016877 1.157231-.24295 1.854717-.190781 1.862713.05452 3.462574-.072494 5.032315-.450882 5.572532-1.028763 11.134796-1.558518 16.700943"/>
  <path fill="#e2dccc" d="M142.957413 22.036606s-.494171-.015183-.741562-.023972c-.072891-.566869.101623-1.12495.513885-1.861187.237717-.178154.302323-.118257.308777.234467-.022735.785379-.051925 1.218035-.0811 1.650692"/>
  <path fill="#f4e0dc" d="M252.994614 125.404976c2.315704-4.827164 4.622604-9.254669 6.976608-14.055046 2.443024-.189552 4.838989-.006233 7.47876.195747 1.340637 3.97628 2.754974 8.171051 3.857818 12.409798-5.102935 3.443626-9.831146 6.938461-14.72171 10.18901-1.615799 1.073929-3.650452 1.517655-6.265198 2.555924 1.080735-4.418686 1.872818-7.657227 2.673722-11.295433"/>
  <path fill="#efede3" d="M235.003662 113.00061c.175278 1.868988.350556 3.737976.767944 6.215683.572693 3.001206.90329 5.393692 1.228135 8.0336-.005753.247406-.014603.742295-.374344.784561-4.107621 3.403122-7.940766 4.588868-11.828202-.525016-.391876 1.445701-.73233 1.98072-.595855 2.328758.47612 1.214203 1.356033 2.315033 1.609024 3.555511.160537.787201-.518296 1.745575-1.153229 2.622711-.775955-.000381-1.219406.003693-2.083191-.00241-7.475204-1.338532-14.53006-2.666886-21.537994-4.370026 1.020324-3.802628 2.456238-7.1754 2.872482-10.669624.913589-7.669251 3.28569-10.311165 9.941177-9.439202-.176147-2.084709-.343704-4.067665-.540283-6.394203 1.841736.259453 3.248764.457672 4.479859.631104 1.288528-1.405892 2.486663-2.713166 3.684814-4.02044.028244.610047.056503 1.220093.084763 1.83014 2.147689.8059 4.295379 1.611801 6.70195 2.629592.074554 1.05732-.103775 1.904099-.295517 2.747841-.335434 1.476166-.679138 2.950463-1.019394 4.425545 1.430023.169151 2.866958.512024 4.288025.455574 1.265731-.05027 2.513916-.542511 3.769836-.839699"/>
  <path fill="#f4ebe5" d="M235.003601 112.575203c-1.255859.722595-2.504044 1.214836-3.769775 1.265106-1.421067.05645-2.858002-.286423-4.288025-.455574.340256-1.475082.68396-2.949379 1.019394-4.425545.191742-.843742.370071-1.690521.16159-3.054405-1.63768-2.313904-2.882538-4.109344-4.129348-6.236702-.0038-.774467-.005661-1.217018-.024811-1.959175-.339035-.769165-.660797-1.238739-1.002671-2.006401-.339843-.76651-.659576-1.234932-.975952-2.120087.007492-1.805877.011643-3.19503.358338-4.63755 4.267059-3.7061 6.862793-2.996712 9.603714 2.041222.869629 1.598411 2.671234 2.689773 4.052307 4.398048.948746 4.40126 1.351944 8.918953 7.639847 6.864998.836593-.273262 2.219467 1.125877 3.34999 2.168976.334382 3.138992.668091 5.85952.718171 8.701439-1.094529.710868-1.905411 1.300361-2.716309 1.889846-.583847 1.594292-1.167679 3.188591-1.751511 4.782891-.775207-.60904-1.550415-1.218079-2.325622-1.827126-1.566269-4.697479-3.132523-9.394966-4.698792-14.092453-.572311.142655-1.144638.285317-1.716964.427971.165451 2.616371.330902 5.232742.496429 8.274521"/>
  <path fill="#d4d5c3" d="M236.985138 127.992188s.00885-.494889.388458-.742203c1.127548-.247391 1.875488-.247467 2.623429-.247544.003433.746857.006866 1.493714.045318 2.964539 1.797714 5.062576 3.92865 2.06572 5.961563 1.021484.337281 2.086853.674546 4.173691 1.014832 6.619721-.445297.374527-.893585.389892-1.914276.129028-2.746491-.759949-4.920594-1.243667-7.204163-1.947235-.307587-.496201-.56839-.686737-.893463-1.22908-.008301-2.481293-.014999-4.524994-.021698-6.56871"/>
  <path fill="#f4e0dc" d="M245.142334 115.330383c.668625-.910469 1.479507-1.499962 2.918976-2.242462 1.729721-.465484 2.830887-.777946 3.932037-1.090416-.559448 3.422722-1.118881 6.845436-1.839966 10.631249-1.730667-2.083741-3.299713-4.530571-5.011047-7.298371"/>
  <path fill="#dddccb" d="M239.999207 126.588211c-.750123.414307-1.498063.414383-2.619858.414368-.704453-2.392594-1.03505-4.78508-1.35849-7.589447 4.613769.160858 3.548553 3.875541 3.978348 7.175079m5.946502 4.051483c-1.974716 1.393006-4.105652 4.389862-5.901855-.299301 1.925537-.250183 3.884598-.149826 5.901855.299301"/>
  <path fill="#fcecec" d="M246.997559 103.999649c-1.129883-.624634-2.512757-2.023773-3.34935-1.750511-6.287903 2.053955-6.691101-2.463738-7.478623-7.235726.370789-3.519187.586304-6.282753.805878-9.442008.005615-1.452965.007187-2.510254.289337-3.814431 1.135712-2.833954 2.193543-5.375488 2.787582-8.021164.566391-2.52256.649216-5.153686.950119-8.105865.024308-2.118122.043168-3.867466.042618-5.910404-.302994-.776333-.586578-1.259079-.870147-1.741825.448974-.550793.897933-1.101586 1.799591-1.545723.986129-.736084 1.519592-1.578824 2.419357-2.463673 3.08017-1.406227 5.269546-.98029 6.077927 2.156246 1.009323 3.916165 1.698379 7.914871 2.525955 12.346352.0009 2.285225.101837 4.10849-.014466 5.917793-.651687 10.138664 2.991852 21.155304-5.985778 29.610939"/>
  <path fill="#f5c6cb" d="M211.985748 81.993103c3.428726-5.304939 6.857453-10.609879 10.623169-15.979279.522812.500847.708618 1.066163 1.335465 2.051148 3.189636-.318207 6.005615-.872788 8.666015-1.850617 2.221451-.816474 4.260712-2.128646 6.379898-2.852691-2.252975 3.518722-4.306427 6.851509-6.907119 9.681358-.597077.649674-3.068039-.559059-4.69162-.652893-.70047-.040489-1.809052.382736-2.100281.931-1.862717 3.506599-3.549545 7.106613-5.622482 10.819115-3.692612 2.310844-5.395462-.85701-7.683045-2.147141"/>
  <path fill="#f7b8c3" d="M238.991043 62.993057c-2.119934 1.092652-4.159195 2.404824-6.380646 3.221298-2.6604.977829-5.476379 1.53241-8.417984 2.022042 2.564713-4.025597 5.316559-7.80727 8.081742-11.579148 3.230972-4.407234 4.745086.946244 7.523285 1.29308.661102.510132.944686.992878.896698 1.81477-.788742 1.302085-1.245926 2.265018-1.703095 3.227958"/>
  <path fill="#fadbdf" d="M252.997559 68.00251c-.827332-3.963074-1.516388-7.96178-2.525711-11.877945-.808381-3.136536-2.997757-3.562473-6.331559-2.159904-.788818.037391-.957702.036331-1.126571.035267 0 0-.008118-.497567.265121-.932896.752899-1.645916 1.232559-2.85651 2.033875-4.203255 4.13858-2.335918 4.570144 2.033463 6.691177 3.551296 1.003006 5.802582 1.997116 11.195588 2.732651 16.481091-.75203-.369545-1.245514-.631599-1.738983-.893654"/>
  <path fill="#f9c3cb" d="M251.99501 52.005493c-2.112152-1.108253-2.543716-5.477634-7.014389-3.140476-1.096847.136555-1.539932.135723-1.983001.134891.002716-.441989.005447-.883976.013427-1.657211 7.426758-2.798118 7.426758-2.798118 9.704941 4.285545-.382339.371529-.551651.37439-.720978.377251"/>
  <path fill="#f7b8c3" d="M242.73732 49.211487c.703369-.210747 1.146454-.209915 1.921616-.21032-.147538 1.209355-.627198 2.419949-1.376008 3.817086-.448089-1.007367-.626998-2.201279-.545608-3.606766"/>
  <path fill="#f3d4d7" d="M242.892639 54.265221c.289948-.264229.458832-.263169.881348-.25845-.279831.846397-.813294 1.689137-1.55011 2.315296.046997-.741569.297348-1.266563.668762-2.056846m19.145813-3.9879c.482941.254921.967621.817547 1.228485 1.550152-.558136-.300831-.892425-.771641-1.228485-1.550152"/>
  <path fill="#fae5e6" d="M252.997803 68.470917c.493225-.206352.986709.055702 1.740661.674156.260498.356399.262146.854317.260712 1.282646.205872 3.033943 1.058228 5.79139.487976 8.213982-1.236893 5.254715.598602 9.373375 3.517731 13.362388-.002625.747673-.005249 1.495339-.356323 2.672219-1.78183 3.727676-3.215195 7.026138-4.64856 10.324608-.641953 2.089714-1.28389 4.179435-1.966248 6.632873-1.141555.676186-2.242721.988648-3.688812 1.332748-.67865-2.688903-1.012359-5.409431-1.346741-8.548423 8.97699-8.8741 5.333451-19.89074 5.985138-30.029404.116303-1.809303.015366-3.632568.014466-5.917793"/>
  <path fill="#fbcfd5" d="M255.00061 69.99939s-.001648-.497918-.00357-.746827c-.996033-5.641902-1.990143-11.034908-2.993149-16.83749.160446-.412441.329758-.415302.753159-.423965.920242 1.078701 1.58638 2.163204 2.297256 4.01527.121719 6.850899 4.489182 10.990654 6.94368 15.996979-.140015 4.811722-.280029 9.623444-.994385 14.445648-.678223-2.117996-1.06543-4.278641-.828186-6.368385.52298-4.60598-1.052948-7.950211-5.174805-10.08123"/>
  <path fill="#fadbdf" d="M254.999176 70.427719c4.123291 1.70269 5.699219 5.046921 5.176239 9.652901-.237244 2.089744.149963 4.250389.537994 6.650703-.134765 1.89016-.553711 3.508484-1.340576 5.199791-3.287079-3.916038-5.122574-8.034698-3.885681-13.289413.570252-2.422592-.282104-5.180039-.487976-8.213982"/>
  <path fill="#f9c3cb" d="M262.339813 71.810432c-2.796325-4.8134-7.163788-8.953155-7.281097-15.429699.836761.617425 1.533569 1.951081 2.632416 2.564297 1.724029.962086 3.71939 1.438011 5.944976 2.083527-.088043 3.505447-.52127 7.047203-1.296295 10.781875"/>
  <path fill="#fadbdf" d="M254.378113 104.995941c1.055252-3.293495 2.488617-6.591957 4.268982-9.945801 2.068847 5.187096.827697 8.114678-4.268982 9.945801"/>
  <path fill="#fbcfd5" d="M169.005768 170.021301c.745407-.003616 1.490799-.007217 2.608536-.009659-.021637 1.340119-.039017 3.0047-.870026 3.965729-5.89267 6.814453-5.939011 6.763275-.389038 13.886307.592666.760635 1.04892 1.627548 1.344833 2.995712-.379013 1.387207-.534408 2.223862-.689819 3.060532-.448685.018356-.897369.036697-1.682999.042999-1.76094-.971405-3.184936-1.930755-5.007675-3.297912-.923721-1.626053-1.836304-2.822419-1.906555-4.06633-.302933-5.365708-4.36171-7.14711-8.302857-8.997788-7.148178-3.356628-7.17163-3.306686-5.999389-10.816955.308807-.492875.571136-.678788 1.035721-.454483 3.86766 8.504989 14.98442 10.404525 19.859268 3.691848"/>
  <path fill="#f6cbd0" d="M171.336563 193.941193c-.170898-.857941-.015503-1.694596.395645-2.731324.585861.559418.916001 1.318894 1.241776 2.409836-.439942.335205-.875534.338974-1.637421.321488"/>
  <path fill="#d4d5c3" d="M237.01651 141.010681c-.654312 1.112351-1.308609 2.224701-2.268646 3.869919-1.801544 4.686783-4.428543 7.732315-8.74028 9.127045-.006943-.006821-.019181-.016449-.017807-.348252.001968-.774414.002563-1.217025.246429-1.846115-.583816-1.060638-1.410904-1.93483-2.237091-2.811142.000885-.002136-.003387-.000305.037872-.352142 2.997162-3.211945 4.637192-6.447968 3.390808-10.631744 1.795121-.001771 3.176041.001281 4.606049.369323 1.693619 1.117691 3.338135 1.870407 4.982666 2.623108"/>
  <path fill="#cacbb8" d="M226.014526 154.014465c4.304795-1.40155 6.931794-4.447082 8.706009-8.807739-.341675 2.254166-.513107 4.963486-1.701507 7.10968-1.326432 2.395432-3.576493 4.279434-5.764603 6.161377-.639984-1.637527-.939941-3.050415-1.239899-4.463318"/>
  <path fill="#dddccb" d="M237.26413 141.009399c-1.892151-.751419-3.536667-1.504135-4.896576-2.66011 1.736725-1.385788 3.188812-2.368301 4.640884-3.350815.323471.104767.584274.295303.889008 1.20726.107605 2.023316.108566 3.411026.109543 4.798722 0 0-.49524.003677-.742859.004943"/>
  <path fill="#cacbb8" d="M238.387772 140.96106c-.38176-1.3443-.382721-2.73201-.380845-4.535462 2.176941.067948 4.351044.551666 6.761323 1.314514-1.842438 1.24527-3.921067 2.211411-6.380478 3.220948"/>
  <path fill="#d4d5c3" d="M217.323212 169.866867c.335266-1.95459.971084-4.063812 1.638427-6.52269.470871-.35588.910187-.362091 1.678345-.370208.782959.971221 1.237076 1.944335 2.037079 2.983261-1.453857 1.295532-3.253586 2.525268-5.353851 3.909637m8.684372-15.859222c.3069 1.419723.606857 2.832611.940231 4.607528-.748337.687424-1.530121 1.012833-2.632935 1.008499-.652099-1.427505-.983184-2.525283-1.040222-3.750549 1.08728-.712295 1.900513-1.297104 2.713745-1.881912 0-.000015.012238.009613.019181.016434"/>
  <path fill="#dddccb" d="M223.00061 156.00061c.331086 1.097779.662171 2.195557.995087 3.643006-.769562.684555-1.540985 1.019424-2.625656 1.391845-.332489-.730621-.35173-1.498809-.328842-2.970764.681213-1.157226 1.320312-1.610656 1.959411-2.064087"/>
  <path fill="#dfdfcf" d="M197.997299 78.37558c1.753632-1.040009 3.501526-1.70665 5.619309-2.371613.680465.797074.991027 1.592476.938736 2.707398-1.236161.951286-2.489197 1.391891-2.91948 2.246666-2.326782 4.622162-4.449844 9.346885-6.988434 14.093666-4.789733 4.358658-9.320388 8.575737-13.638809 12.999954-1.895035 1.94146-3.353134 4.30854-5.017227 6.476524-1.66304 2.166626-3.335617 4.325943-5.004013 6.488465-.440598-.00322-.881195-.006432-1.652145-.008271-1.511536-.151641-2.692719-.304664-4.108155-.728126-.493866-.765778-.753479-1.261116-1.122085-2.014511 3.6595.227157 5.298111-1.758995 5.909851-5.212692.24498-1.383004.609054-3.115006 1.564773-3.939354 4.690735-4.04599 9.415329-8.103249 14.488663-11.638985 3.992279-2.782318 6.805603-6.022354 8.212784-10.729637.832886-2.786125 2.447418-5.338585 3.716232-8.369484"/>
  <path fill="#eed7d0" d="M211.682037 82.152214c2.591294 1.13102 4.294144 4.298874 8.154206 2.233101 1.049865.272667 1.604065.443466 2.160003 1.014175.005677 1.466195.009613 2.532471.013565 3.598755-.004165 1.389145-.008316 2.778298-.382644 4.588471-2.454865 1.415748-4.539521 2.410476-6.999054 3.405609-1.124603-.002182-1.874314-.004776-2.659439-.355354-1.356247-2.450692-2.677094-4.553391-4.022553-6.979981-.661163-1.435188-1.297729-2.546493-1.93428-3.657799 1.788833-1.229286 3.577667-2.458572 5.670196-3.846977"/>
  <path fill="#cacbb8" d="M205.996857 85.629539c.651535 1.480958 1.288101 2.592263 1.652282 4.183266-6.714706 9.06662-13.157058 17.653534-19.599426 26.240448-.479477-.334961-.958969-.669914-1.618912-1.325256.06659-1.125916.313645-1.931435.712632-3.039787 1.388458-2.42952 2.625015-4.556206 4.150116-6.825051.760543-1.049385 1.232589-1.956619 1.949096-3.03083.417267-.719658.590058-1.272347 1.105881-1.879479 3.070267-4.729171 5.733398-9.443374 8.570389-14.050506.697418-1.132576 1.962021-1.915886 2.965881-2.859764.032364.739105.064743 1.478202.112061 2.586959"/>
  <path fill="#d4d5c3" d="M205.789932 82.70842c-.908996 1.278038-2.173599 2.061348-2.871017 3.193924-2.836991 4.607132-5.500122 9.321335-8.568146 13.680237-.013214-1.739983.314377-3.164132.641968-4.588288 2.193283-4.689377 4.316345-9.4141 6.643127-14.036262.430283-.854775 1.683319-1.29538 2.922348-1.923989.622772 1.115509.879807 2.22786 1.23172 3.674378"/>
  <path fill="#e5e5d1" d="M165.949951 26.653172c-.188049 1.463308-.429001 2.583143-.809112 4.023237-1.834183-.393351-3.533844-1.096264-5.222763-1.824085-1.260605-.543248-2.69426-1.777335-3.706421-1.490092-.966019.274142-1.880356 2.038733-2.132187 3.286438-.913681 4.526901-1.507035 9.032738 2.899536 12.469277 1.026489.800521 1.413406 2.42115 2.117416 3.706119-6.830246 2.678723-6.830246 2.678723-3.985931 9.427235 2.381607 5.650688 2.344421 5.774261-4.103562 12.8335 2.082367 1.786293 4.163468 3.57151 6.244568 5.356727-.219726.366639-.439453.733284-.659179 1.099923-2.606613-.847519-5.213242-1.695046-8.049942-2.906624.209533-3.283699.527038-6.228836 1.129608-9.114464.43634-2.089588 2.438446-4.848572 1.699264-6.021744-4.075729-6.468479 2.62587-13.789551-2.114898-20.305366-1.213822-1.66829.416-5.405547.719803-8.490078-.338852-.76599-.658112-1.234168-.977524-2.10487.13652-1.654249.273208-2.905976.337295-3.492907 3.251145-.416017 5.957306-.7623 8.663468-1.108583 2.632553 1.437626 5.265106 2.875255 7.950561 4.656357"/>
  <path fill="#cacbb8" d="M142.955826 22.390823c.030762-.786874.059952-1.21953.114395-1.974327.025253-.322138.47821-.371006 1.069961-.317014 1.353852 2.338693 2.115952 4.623396 2.874497 7.238138.004532.770069.012634 1.210094.010651 2.117897-.010086 8.300171-.010086 16.132568-.010086 23.964962-.394898.040947-.789811.081898-1.184708.122845-.633118-1.183735-1.266235-2.36747-1.899353-3.551201-.005493-.420822-.010986-.841645.010437-1.995533-.592026-2.504032-1.210968-4.274994-1.82991-6.045956-.013672-.742825-.027344-1.485649.24028-2.876545.047561-3.126167-.186188-5.604259-.419922-8.082357.006576-1.063012.013153-2.126025.279114-3.763186.391311-1.168444.523239-1.762739.655166-2.357033.029297-.708824.058594-1.417648.089478-2.48069"/>
  <path fill="#dcdbc6" d="M147.018234 27.00758c-.7621-2.284702-1.5242-4.569405-2.650711-6.922611.345276-.701626 1.001831-1.802418 1.773499-1.890084 4.223358-.47981 8.472351-.767601 12.719803-.96414.61087-.028265 1.261123.79484 2.214828 1.442343-1.159607 1.032629-2.064758 1.83868-3.023102 2.98423-2.759323.68578-5.465484 1.032063-8.716629 1.44808-.064087.586931-.200775 1.838658-.667495 3.493204-.770096.404871-1.210145.406925-1.650193.408978"/>
  <path fill="#fcfaf5" d="M87.777344 67.733154c-.867951.596558-1.95781.929268-3.413864 1.258576.819854-.509743 2.005905-1.016083 3.413864-1.258576"/>
  <path fill="#f9c3cb" d="M148.002045 167.003052c-1.063507 7.291153-1.040055 7.241211 6.108123 10.597839 3.941147 1.850678 7.999924 3.63208 8.302857 8.997788.070251 1.243911.982834 2.440277 1.549683 4.028701-1.022568.372254-2.087021.374344-3.709626.064026-4.282028-5.369705-6.451874-12.146179-14.253692-12.692016-.319168-.467377-.638337-.934754-1.013337-2.036438-.812973-1.301163-1.570083-1.968033-2.327209-2.634919-.548615.893494-1.097229 1.787003-1.645844 2.680512-.001907.167282-.003829.334549-.014709.752747-.91246-.225663-1.815933-.702225-2.859146-1.910828-.139725-2.969345-.139725-5.20665-.139725-7.12146 2.547882-.734558 4.272843-1.231857 6.318573-1.589722 1.441879.38089 2.562958.62233 3.684052.86377"/>
  <path fill="#f7b8c3" d="M146.036987 178.361298c7.764221.183929 9.934067 6.960403 13.817017 12.330017-.939911.646087-2.03891.979828-3.487122 1.315857-1.191894-1.094132-2.048492-2.180161-2.874633-3.288895-2.478928-3.326935-4.945984-6.66272-7.455262-10.356979m-4.625839-2.354859c.150467-.891403.699081-1.784912 1.247696-2.678406.757126.666886 1.514236 1.333756 2.304443 2.338135-1.029281.337723-2.091629.337952-3.552139.340271"/>
  <path fill="#fadbdf" d="M168.847885 169.700226c-4.716965 7.033752-15.833725 5.134216-19.547378-3.684387 1.259933-3.408158 2.505844-6.180329 3.751754-8.9525 1.459854-1.229278 2.919709-2.458557 4.640702-3.88208 1.236725.624283 2.212326 1.442825 3.054931 2.14978-.858947 1.68219-1.540924 3.017807-2.222885 4.353409 1.317124.131745 2.803177-.07315 3.908158.481323 1.349502.677155 2.682098 1.80275 3.475845 3.07512 1.178543 1.889175 1.877746 4.077346 2.938873 6.459335"/>
  <path fill="#f1e8e3" d="M158.348801 151.962326c.752594-1.281174 1.84848-2.595154 3.284469-3.949753-.753662 1.278565-1.847412 2.597763-3.284469 3.949753"/>
  <path fill="#fdf9ee" d="M80.964096 109.35643c6.220352-.685898 12.401733-1.115852 18.590469-1.304802 3.376122-.103088 4.310692-1.827049 5.712395-4.802902 2.284966-4.851006 5.960945-9.134552 9.541344-13.22773.929367-1.062454 3.726143-.89093 5.589104-.663406 5.921928.723251 11.80796 1.74031 18.15345 3.05632.773208 2.805221 1.10086 5.197937 1.178222 7.791489.251221 1.067825.752716 1.934814 1.364945 3.059585.375396.750939.640075 1.244095.909759 2.090378.666229 1.11853 1.327469 1.883942 2.207459 2.758926.491729.309433.680298.57032.82727 1.211647.680359.772278 1.317856 1.225129 2.150833 1.95237 1.724137 2.415604 3.252793 4.556816 4.781449 6.698029-1.200409.488144-2.400818.976287-4.167908 1.737182-5.025253 2.890351-9.811249 5.096382-13.817047 8.283158-2.324112 1.848938-3.394196 5.274215-5.34401 8.154495-1.381965 1.781402-3.156799 3.310287-3.371322 5.033417-.484329 3.890258-.197487 7.876525-.241516 12.070785-.017159.24704-.044312.741577-.044312.741577-4.469337.732834-8.938667 1.465668-13.9599 2.289017 1.475151-1.140518 2.621773-2.027039 4.865944-3.762116-3.888618-1.398574-6.896339-2.363357-9.796951-3.582901-1.112778-.467849-1.981171-1.516922-2.960915-2.301147 1.049362-.467911 2.06218-1.068024 3.157212-1.370697 1.408859-.389389 2.903137-.475113 4.300407-.89299.142052-.042511.075188-2.035797-.242584-2.149216-1.46666-.523483-3.32898-1.365936-4.545792-.866623-2.584122 1.060379-4.820045 2.943924-7.267792 4.371537-1.490882.869537-3.059776 1.667144-4.687431 2.221832-1.448952.493774-3.026985.608764-6.129608 1.184326 3.519867 3.140335 5.924347 5.285553 8.328827 7.430771-.156494.475296-.312981.950607-.469475 1.425903-2.879127-.519317-5.742996-1.163055-8.642197-1.518692-2.330513-.285873-4.703743-.224563-7.058128-.314331-2.580238-.098389-5.202461.028427-7.711639-.445022-.631394-.119126-1.478592-2.318863-1.209488-3.276673.476753-1.69696 1.874199-3.109985 2.632095-4.758713 1.392761-3.029831 1.740723-5.356002-2.537765-6.840728-5.018784-1.741623-2.868233-6.223999-2.502175-9.813691.209625-2.055664.440659-4.137657.980927-6.120941.349571-1.283195.998565-3.088623 1.989479-3.492798 5.387024-2.197258 7.062942-7.181114 9.446365-12.056625m12.163513 5.830757c-4.782318.347046-3.220367 4.160385-2.945183 6.444748.286629 2.379448 1.98198 4.606857 3.225296 6.808144.072205.127853 1.850785-.341355 2.433144-.930321 2.889267-2.922012 1.69867-9.804756-2.713257-12.322571"/>
  <path fill="#e5e2d4" d="M125.046143 153.008331c.026878-3.94722-.259964-7.933487.224365-11.823745.214523-1.72313 1.989357-3.252015 3.733276-4.994431 2.955689 1.155563 5.234009 2.436478 8.637573 4.350021.846955-2.968475 2.046097-5.580963 2.265412-8.273254.447037-5.487709 1.485596-6.188507 6.258072-3.872086 1.419677.689087 3.335067.561219 5.006118.474793 1.954255-.101074 3.88971-.566132 5.833313-.873283 1.54094.824806 3.081864 1.64962 4.773102 3.087364-1.571975 2.25653-3.28302 3.912109-5.020477 5.539505-1.165268 1.091461-2.632599 1.963684-3.502167 3.247375-2.224457 3.283859-4.190277 6.74292-6.673523 10.185791-7.454345 1.019913-14.494705 1.985932-21.535064 2.95195"/>
  <path fill="#e8e5d5" d="M152.331055 117.980606c-1.888916-2.145485-3.417572-4.286697-5.180909-7.023453-.874603-1.047249-1.514526-1.498947-2.154464-1.950645-.104141-.3219-.29271-.582787-.808411-1.213753-.891312-1.217567-1.539902-2.004043-2.188492-2.790512-.264679-.493164-.529358-.98632-.901245-2.076797-.444214-1.371827-.781189-2.146355-1.118179-2.920876-.327637-2.392723-.655289-4.785439-.990189-7.590126.15535-2.89666.317993-5.381348 1.032471-7.904327.98674 1.061439 1.421631 2.161178 1.864929 3.28215 4.145737-1.854599 4.337509-4.997696 4.093506-8.478081-.075607-1.078316.639572-2.212082.992691-3.320457 4.547775 2.355583 3.801865 6.869621 2.631744 10.025421-2.844284 7.671058-.234054 14.34024 2.218384 21.209541.487473 1.365387 1.153839 2.666901 1.890076 4.345207 1.109802-.384613 2.360519-.818069 4.203369-1.456733-.359619 2.041442-.630295 3.578048-.904983 5.490379-1.442704 1.042923-2.881363 1.710121-4.680298 2.373062"/>
  <path fill="#dfdfcf" d="M156.997818 127.619949c-1.937149.683548-3.872604 1.148606-5.826859 1.24968-1.671051.086426-3.586441.214294-5.006118-.474793-4.772476-2.316421-5.811035-1.615623-6.258072 3.872086-.219315 2.692291-1.418457 5.304779-2.265412 8.273254-3.403564-1.913543-5.681884-3.194458-8.322158-4.514358 1.272445-2.754929 2.342529-6.180206 4.666641-8.029144 4.005798-3.186776 8.791794-5.392807 13.615326-8.030999 1.458709.676758 2.642105 1.267289 3.627365 2.093956 1.97818 1.659767 3.84819 3.448456 5.769287 5.560318"/>
  <path fill="#eed7d0" d="M125.028992 153.255371c7.05751-1.213058 14.09787-2.179077 21.75917-2.937225 1.484375.366287 2.347794.524688 3.211228.683075.326522 1.422058.653045 2.844116.683715 4.782898-1.755722 1.421127-3.215591 2.325531-5.046585 3.185424-4.019256-1.316619-7.585785-3.08142-11.341583-3.703491-2.956222-.48967-6.145874.429947-9.247528.722656-.015671-.00093-.044975.010071-.044983.010071.000656-.444885.001312-.889755-.007889-1.668243-.009857-.333588.017296-.828125.034455-1.075165"/>
  <path fill="#dfdfcf" d="M150.367508 150.993683c-1.231552-.150849-2.094971-.30925-3.16536-.729431 1.862305-3.650742 3.828125-7.109803 6.052582-10.393662.869568-1.283691 2.336899-2.155914 3.502167-3.247375 1.737457-1.627396 3.448502-3.282975 5.207245-5.275193.47966 1.326966 1.64125 4.271485 1.258484 4.488205-5.930908 3.357758-6.594391 10.518296-11.055435 14.82808-.300431.290237-.946335.222885-1.799683.329376"/>
  <path fill="#f5c6cb" d="M146.007645 159.014038c1.459869-.904388 2.919738-1.808792 4.671676-2.860428.781159.178787 1.270264.504822 2.066162.870285-.939132 2.811615-2.185043 5.583786-3.584991 8.669556-.478577.411697-.740906.59761-1.049713 1.090485-1.229828-.022324-2.350907-.263764-3.792114-1.043839-.318604-1.603134-.317109-2.667648.027587-3.787872.782608-1.016541 1.222001-1.977371 1.661393-2.938187"/>
  <path fill="#d9dac7" d="M200.989014 132.018768c7.05487 1.328354 14.109726 2.656708 21.564666 4.292389.076523.774765-.247039 1.242188-.570587 1.70961-3.049103-.340484-6.098221-.680969-9.564911-1.021713-7.2276-1.135727-14.037643-2.271195-21.13031-3.689575.017594-1.063385.317841-1.843872 1.020188-2.918503 3.161712.346512 5.921325.987152 8.680954 1.627792"/>
  <path fill="#eceadb" d="M201.03595 131.643997c-2.806565-.265869-5.566178-.906509-8.710205-1.568527-.476273-.341187-.656861-.598785-1.092041-1.279526 3.063095-7.613983 4.297012-15.685264 10.466949-21.421707 2.893875-2.690567 5.063843-6.148529 7.693817-9.14286.584809-.665833 1.725083-.843811 2.609604-1.246422.749725.002594 1.499436.005188 2.791443.329803 3.429474 1.109772 6.316681 1.897507 9.203873 2.685242 1.244857 1.795441 2.489715 3.590881 3.868499 5.692886-2.013748-.499328-4.161438-1.305229-6.309127-2.111129-.02826-.610047-.056519-1.220093-.084763-1.83014-1.198151 1.307274-2.396286 2.614548-3.684814 4.02044-1.231095-.173432-2.638123-.371651-4.479859-.631104.196579 2.326538.364136 4.309494.540283 6.394203-6.655487-.871963-9.027588 1.769951-9.941177 9.439202-.416244 3.494224-1.852158 6.866996-2.872482 10.669639"/>
  <path fill="#e5e2d4" d="M211.968674 96.636978c-.849121.750588-1.989395.928566-2.574204 1.594399-2.629974 2.994331-4.799942 6.452293-7.693817 9.14286-6.169937 5.736443-7.403854 13.807724-10.678818 21.310181-6.950164-2.167298-7.054397-2.591278-3.018112-12.267617 6.488358-8.950462 12.93071-17.537376 19.670044-26.280113 1.617813 1.946892 2.93866 4.049591 4.294907 6.50029"/>
  <path fill="#d0d2bf" d="M186.991516 111.991043c-.24707.805519-.494125 1.611038-.866669 2.712036-.710647 1.107346-1.295822 1.91922-2.382507 3.02124-1.583633 2.282509-2.665741 4.27488-3.747833 6.267258-1.063858.000984-2.127701.001969-3.590286.001572-.400055-.170616-.401398-.339852-.399643-1.137314 2.584594-9.553108 3.948547-10.824272 10.986938-10.864792"/>
  <path fill="#cacbb8" d="M180.404205 123.994377c.672394-1.995178 1.754502-3.987549 3.215287-5.987907-.200104 2.247764 2.153472 6.060074-3.215287 5.987907"/>
  <path fill="#dddccb" d="M221.988861 138.45343c.31778-.900085.641342-1.367508.985169-2.13208.463699-.301239.90715-.305313 1.807464-.040283 1.04863.760086 1.640366 1.251053 2.232102 1.74202 1.660583 4.178939.020553 7.414962-3.371293 10.620193-2.505966.017899-4.576004-.309326-6.646041-.636551 0 0-.499024-.002823-.748551-.004211.050812-.560456.350723-1.606125.651581-1.6064 5.454727-.004974 5.404251-3.655578 5.089569-7.942688"/>
  <path fill="#e5e5d1" d="M217.161438 148.330322c1.904861.003632 3.974899.330857 6.439606.664795.394684.006714.398956.004883.424377.327301.672791 1.107376 1.320145 1.892349 1.967514 2.677323-.000595.442627-.00119.885238-.003143 1.659668-.814621.91661-1.627854 1.501419-2.715134 2.213714-.913147.580918-1.552246 1.034348-2.234833 1.808365-.803131-.868668-1.792114-1.973648-2.267562-3.267364-.679017-1.847626-.982041-3.83342-1.610825-6.083802"/>
  <path fill="#d9dac7" d="M187.143433 111.68821c-7.190308.343353-8.554261 1.614517-11.141419 10.913787-1.536026-.095764-3.06636-.565902-4.805664-1.310699 1.459427-2.43718 3.132004-4.596497 4.795044-6.763123 1.664093-2.167984 3.122192-4.535064 5.017227-6.476524 4.318421-4.424217 8.849076-8.641296 13.638809-12.999954.017716 1.366752-.309875 2.790901-.639709 4.585327-.175018.922958-.347809 1.475647-1.109375 2.2491-1.023621 1.186905-1.458481 2.153045-1.893341 3.119186-1.236557 2.126694-2.473114 4.25338-3.861572 6.6829"/>
  <path fill="#fcefe7" d="M131.020996 170.981476c.326981 2.072449.653961 4.144913.981201 6.617035-5.930793-4.365753-12.624328-2.830841-19.620651-1.763169-6.582428.409272-12.789261.583191-18.987022.922562-3.61409.197922-4.835717-2.020248-3.212983-7.409454.929459-.348007 1.373963-.347931 1.818459-.34784 4.229713 6.204316 13.951645 6.501572 17.89801.485764.462715-.705353.56205-1.80014.484841-2.68428-.530449-6.074509 1.529655-8.808533 7.494072-9.771454 2.103508-.339615 4.207519-.676148 6.718399-1.02298.407112-.008881.436416-.019882.434768.393066 1.331009 4.138382 2.663666 7.863846 4.11731 11.86557.7052 1.089234 1.289398 1.902207 1.873596 2.71518"/>
  <path fill="#fdf9ee" d="M92.445694 169.000244c-.89019.000275-1.334694.000199-2.112579.000153-2.291809-.821198-4.387085-1.4245-6.161538-2.538742-1.224525-.768906-2.005279-2.244507-2.984359-3.404297 1.363365-1.013169 2.699814-2.810745 4.09629-2.858643 2.183327-.074905 4.489563.831879 6.595688 1.687302 3.614342 1.468002 7.114464 3.217224 10.662529 4.848389.024414.494354.048828.988723.073242 1.483078-3.241195.260803-6.482391.521606-10.169273.78276"/>
  <path fill="#f6cbd0" d="M131.362488 171.021286c-.92569-.852783-1.509888-1.665756-1.952942-2.980484.247757-.971939.37706-1.438278.456909-1.912949.294403-1.750152.013565-4.059387 1.03093-5.081359.83493-.8387 3.217788-.269074 4.893737-.107789 2.746186.264252 5.475495.70369 8.21193 1.06923-.001496 1.064514-.002991 2.129028-.005158 3.592712-1.725631.8965-3.450592 1.393799-5.998474 2.128357 0 1.91481 0 4.152115-.002289 6.833282-2.099228-.87117-4.196197-2.186187-6.634643-3.541"/>
  <path fill="#dcdbc6" d="M146.980453 75.655952c-.360809 1.446152-1.075988 2.579918-1.000381 3.658234.244003 3.480385.052231 6.623482-4.093506 8.478081-.443298-1.120972-.878189-2.220711-1.564804-3.545441.399643-3.950195 1.05098-7.6754 1.707703-11.822693.535141-5.988235 1.113022-11.550499 1.563904-17.123031.127014-1.569741-.118287-3.169602.072494-5.032315.898438.907067 1.531555 2.090802 2.164673 3.274537.394897-.040947.78981-.081898 1.184708-.122845 0-7.832394 0-15.664791.379409-23.961838 1.11998-.46232 1.86052-.459988 2.601075-.457655-.32338 2.78672-1.953202 6.523977-.73938 8.192267 4.740768 6.515815-1.960831 13.836887 2.114898 20.305366.739182 1.173172-1.262924 3.932156-1.699264 6.021744-.60257 2.885628-.920075 5.830765-1.518357 9.111954-.494277 1.136306-.829879 1.911079-1.173172 3.023635"/>
  <path fill="#fbf5ea" d="M84.253815 90.46669c-.588814.688904-1.411995 1.157333-2.235184 1.625771-.174698-.462174-.349403-.924347-.524101-1.386521.841636-.153236 1.683273-.30648 2.759285-.23925"/>
  <path fill="#dcdbc6" d="M141.6633 31.27037c.502502 2.19946.736251 4.677552.706512 7.432518-.500763-2.200046-.738022-4.676963-.706512-7.432518m.409698 11.091424c.657654 1.359802 1.276596 3.130764 1.862732 5.31921-.655685-1.357697-1.278564-3.132874-1.862732-5.31921m.518463-17.421532c.14296.525545.011032 1.11984-.381225 1.889637-.138108-.48996-.015885-1.155424.381225-1.889637"/>
  <path fill="#e8e5d5" d="M227.427795 138.01825c-1.005935-.48613-1.597671-.977097-2.313766-1.732712.178039-1.146256.856872-2.10463.696335-2.891831-.252991-1.240478-1.132904-2.341308-1.609024-3.555511-.136475-.348038.203979-.883057.595855-2.328758 3.887436 5.113884 7.720581 3.928138 11.828202.525016.36644 2.00145.373138 4.045151.381439 6.526459-1.45047 1.420075-2.902557 2.402588-4.68837 3.423386-1.71463.035232-3.09555.03218-4.890671.033951"/>
  <path fill="#fae5e6" d="M222.352341 88.94487c-.346482-1.012909-.350418-2.079185-.038987-3.709877 1.018113-1.667709 1.708146-2.77935 2.427063-3.872002.726807-1.104629 1.482224-2.190437 2.225098-3.2845 1.322922 1.060761 2.91304 1.920426 3.901077 3.233223 1.233643 1.639145 1.971589 3.651344 2.875977 5.410019 1.311111-.306435 2.269974-.53054 3.228836-.754646-.215515 2.763572-.43103 5.527138-.80777 8.661438-1.536346-.95266-3.337951-2.044022-4.20758-3.642433-2.740921-5.037934-5.336655-5.747322-9.603714-2.041222"/>
  <path fill="#e5e2d4" d="M223.997437 99.668083c-2.885239-.455818-5.772446-1.243553-8.827057-2.353721 1.917266-1.31717 4.001922-2.311898 6.45343-3.310914.686569.464127 1.006302.932549 1.120132 1.871659.278046 1.024933.762009 1.57917 1.245957 2.133407.001877.442551.003738.885102.007538 1.659569"/>
  <path fill="#eceadb" d="M223.972626 97.708908c-.466675-.254631-.950638-.808868-1.208573-1.535705.547776.296966.869538.76654 1.208573 1.535705"/>
  <path fill="#f3d4d7" d="M236.975464 85.571404c-.962921.619789-1.921784.843894-3.232895 1.150329-.904388-1.758675-1.642334-3.770874-2.875977-5.410019-.988037-1.312797-2.578155-2.172462-3.901077-3.233223-.742874 1.094063-1.498291 2.179871-2.225098 3.2845-.718917 1.092652-1.40895 2.204293-2.428802 3.472092-.871307-.006302-1.425507-.177101-2.147141-.592979 1.577256-3.814362 3.264084-7.414376 5.126801-10.920975.291229-.548264 1.399811-.971489 2.100281-.931 1.623581.093834 4.094543 1.302567 4.69162.652893 2.600692-2.829849 4.654144-6.162636 6.907119-9.681358.457917-1.331547.915101-2.29448 1.723252-3.302975.332123 1.703789.313263 3.453133.003631 5.787853-1.693054 3.72728-3.447021 6.771256-4.359787 10.049454-.511047 1.83548.371964 4.059128.626831 6.107872-.001571 1.057282-.003143 2.114571-.008758 3.567536"/>
  <path fill="#fae5e6" d="M237.264801 81.756973c-.535446-1.801849-1.418457-4.025497-.90741-5.860977.912766-3.278198 2.666733-6.322174 4.354309-9.680679-.010101 2.366806-.092926 4.997932-.659317 7.520492-.594039 2.645676-1.65187 5.18721-2.787582 8.021164"/>
  <path fill="#dddccb" d="M226.236206 151.813278c-.89064-.598511-1.537994-1.383484-2.21167-2.488724.800766.553894 1.627854 1.428086 2.21167 2.488724"/>
  <path fill="#d4d5c3" d="M191.293533 104.863159c.146332-.82399.581192-1.79013 1.360337-2.810058-.127732.853439-.599778 1.760673-1.360337 2.810058"/>
  <path fill="#e2dccc" d="M149.976151 28.703175c-.720978.295478-1.461518.293146-2.571396.287691-.377442-.443152-.385544-.883177-.390076-1.653246.443603-.332093.883652-.334147 1.6539-.336495.64946.467882.96872.93606 1.307572 1.70205"/>
  <path fill="#fbf5ea" d="M93.493423 115.323486c4.046113 2.381516 5.23671 9.26426 2.347443 12.186272-.582359.588966-2.360939 1.058174-2.433144.930321-1.243316-2.201287-2.938667-4.428696-3.225296-6.808144-.275184-2.284363-1.837135-6.097702 3.310997-6.308449"/>
  <path fill="#faf0e4" d="M139.72908 100.205399c.587265.573692.92424 1.34822 1.257721 2.462272-.505005-.527458-1.0065-1.394447-1.257721-2.462272m2.274704 5.149963c.643585.43335 1.292175 1.219826 1.964722 2.327827-.637253-.443885-1.298493-1.209297-1.964722-2.327827m3.034729 3.970573c.597107.132271 1.23703.583969 1.916168 1.35682-.598312-.131691-1.235809-.584542-1.916168-1.35682"/>
  <path fill="#f3d4d7" d="M144.346252 161.95224c-3.079635-.309845-5.808944-.749283-8.55513-1.013535-1.675949-.161285-4.058807-.730911-4.893737.107789-1.017365 1.021972-.736527 3.331207-1.03093 5.081359-.079849.474671-.209152.94101-.577911 1.636673-1.594788-3.499954-2.927445-7.225418-4.242775-11.362884 3.103294-.705643 6.292946-1.62526 9.249168-1.13559 3.755798.622071 7.322327 2.386872 11.341583 3.703476-.068267 1.005326-.50766 1.966156-1.290268 2.982712"/>
</svg>
